<?xml version="1.0" standalone="no"?>
<!DOCTYPE svg PUBLIC "-//W3C//DTD SVG 1.1//EN" "http://www.w3.org/Graphics/SVG/1.1/DTD/svg11.dtd">
<svg version="1.1" xmlns="http://www.w3.org/2000/svg" xmlns:xlink="http://www.w3.org/1999/xlink" x="0px" y="0px" viewBox="0 0 612 792" style="enable-background:new 0 0 612 792;" xml:space="preserve" width="612" height="792">
<style type="text/css">
	.st0{display:none;}
	.st1{display:inline;fill:none;}
	.st2{display:inline;}
	.st3{fill:#FFFFFF;stroke:#FFFFFF;stroke-width:32;stroke-miterlimit:10;}
	.st4{fill:#FFFFFF;}
	.st5{fill:#1B2E4F;}
	.st6{fill:#E21F38;}
	.st7{fill:#FFFFFF;enable-background:new    ;}
	.st8{fill:#10284A;enable-background:new    ;}
	.st9{fill:#FEFDFD;}
</style>
<g id="Layer_1" class="st0">
	<rect x="67" y="588.03" class="st1" width="419.94" height="139.5"/>
	<g class="st2">
		<circle class="st3" cx="305.05" cy="397.6" r="179.17"/>
		<g>
			<path class="st4" d="M287.19,639.4c-0.18-1.39,0.32-2.14,1.81-2.37c2.36-0.36,3.64-2.02,4.48-4.12     c3.79-9.38,7.58-18.76,11.42-28.12c0.4-0.97,0.34-2.45,2.11-2.41c1.76,0.04,1.65,1.51,2.06,2.48c3.85,9.18,7.66,18.38,11.41,27.6     c0.92,2.26,2.12,4.08,4.68,4.56c1.39,0.26,1.56,1.24,1.54,2.38c-5.4,0-10.79,0-16.19,0c-0.2-1.63,0.38-2.3,2.17-2.42     c2.88-0.18,3.14-0.76,2.07-3.42c-0.88-2.18-1.3-5.01-2.92-6.3c-1.67-1.32-4.57-0.27-6.93-0.4c-0.16-0.01-0.32,0-0.47,0     c-6.04,0-6.04,0-7.7,5.8c-0.9,3.15-0.46,3.99,2.83,4.34c1.65,0.18,2.4,0.79,2.38,2.39C297.03,639.4,292.11,639.4,287.19,639.4z      M299.92,624.31c3.44,0,6.51-0.02,9.59,0.01c0.92,0.01,1.37-0.25,0.97-1.22c-1.65-3.93-3.31-7.86-5.18-12.31     C303.41,615.53,301.73,619.74,299.92,624.31z"/>
			<path class="st5" d="M313.92,218.6c78.99,3.53,146.34,58.71,165.75,135.75c5.03,19.96,6.54,40.2,4.51,60.61     c-4.04,40.68-20.06,76.07-48.05,105.91c-21.87,23.32-48.25,39.49-78.82,48.84c-2.63,0.8-2.63,0.79-2.63-1.94     c0-10.32-0.04-20.63,0.04-30.95c0.01-1.76-0.39-2.24-2.21-2.24c-32.54,0.06-65.07,0.06-97.61,0c-1.77,0-2.23,0.4-2.22,2.2     c0.1,10.08-0.01,20.16,0.09,30.23c0.02,2.07-0.5,2.34-2.37,1.72c-26.53-8.75-49.9-22.72-69.91-42.24     c-25.75-25.12-43.02-55.19-50.21-90.4c-11.6-56.78,0.66-108.26,37.55-153.16c26.01-31.67,59.61-51.56,99.62-60.49     c11.94-2.66,24.06-3.95,36.3-4.03c0.01,2.77,0.02,5.55,0.03,8.32c0.08,14.3,3.49,27.72,10.67,40.14     c4.53,7.84,9.97,15.05,15.23,22.39c4.71,6.56,9.6,13,14.4,19.49c-0.35,3.37-0.34,6.77-1.21,10.08     c-3.11,11.88-9.23,21.49-20.47,27.26c-0.37-16.3-5.98-32.62-13.78-39.82c0.08,3.1,0.1,6.07-0.5,9.02     c-2.27,11.12-12.32,19.55-23.03,19.25c-0.6-1.37-1.26-2.72-1.8-4.11c-2.59-6.62-1.36-13.19,0.28-19.78     c1.9-7.65,4.24-15.21,4.66-23.16c0.53-10.13-1.45-19.74-5.85-28.86c0-0.51-0.2-0.92-0.59-1.24c-0.1,0.1-0.26,0.2-0.28,0.31     c-1.94,10.69-6.52,20.11-13.54,28.39c-4.71,5.56-10.05,10.59-14.26,16.58c-7.01,9.97-8.78,21.15-7.58,33.03     c1.5,14.88,7.6,27.59,18.39,37.84c14.41,13.7,31.74,18.92,51.36,16.24c8.79-1.2,17.01-4.25,24.29-9.5     c3.06-1.57,5.64-3.81,8.06-6.17c3.95-3.85,7.94-7.72,9.99-13.06c0.13-0.1,0.26-0.2,0.38-0.29l-0.11,0.02     c1.35-0.37,1.47-1.72,1.99-2.68c7.79-14.43,8.38-29.78,5.53-45.49c-2.54-14.01-8.54-26.59-16.12-38.5     c-7.11-11.17-15.37-21.53-22.8-32.48C322.12,234.3,317.33,226.84,313.92,218.6z M303.73,452.1c-18.48,0-36.96,0.02-55.44-0.03     c-1.89-0.01-2.91,0.01-2.18,2.46c1.11,3.73,0.49,7.35-1.67,10.68c-0.99,1.52-1.75,3.19-2.73,4.72c-3.63,5.64-4.69,11.8-4.09,18.4     c0.84,9.21,6.85,15.31,15.63,15.32c33.63,0.06,67.26,0.06,100.89,0c7.34-0.01,12.65-4.18,14.7-11.2c1.33-4.57,1.38-9.2,0.4-13.85     c-1.07-5.07-3.99-9.27-6.54-13.62c-1.98-3.37-2.46-6.89-1.47-10.49c0.64-2.32-0.18-2.42-2.05-2.42     C340.7,452.12,322.21,452.1,303.73,452.1z M303.85,404.28c-4.68,0-9.37,0-14.05,0c-25.4,0-50.79,0.03-76.19-0.06     c-2.25-0.01-2.76,0.65-2.66,2.75c0.17,3.48,0.21,6.99-0.01,10.47c-0.14,2.3,0.52,2.84,2.82,2.84     c59.92-0.07,119.84-0.06,179.76-0.06c0.4,0,0.8-0.05,1.19,0.01c1.29,0.18,1.6-0.43,1.58-1.63c-0.06-3.89-0.16-7.78,0.03-11.66     c0.11-2.19-0.54-2.72-2.72-2.71C363.7,404.3,333.77,404.28,303.85,404.28z M303.6,427.49c-26.19,0-52.37,0.02-78.56-0.04     c-1.71,0-2.32,0.31-2.24,2.17c0.17,3.72,0.21,7.47-0.01,11.18c-0.14,2.36,0.62,2.81,2.87,2.81     c51.98-0.07,103.95-0.05,155.93-0.05c0.4,0,0.8-0.04,1.19,0.01c1.25,0.17,1.64-0.34,1.62-1.59c-0.07-4.05-0.16-8.1,0.03-12.14     c0.1-2.1-0.63-2.39-2.51-2.38C355.82,427.52,329.71,427.49,303.6,427.49z M303.77,511.62c-19.6,0-39.21,0.02-58.81-0.04     c-1.64,0-2.16,0.38-2.1,2.07c0.13,4.04,0.09,8.09,0.01,12.14c-0.03,1.33,0.33,1.76,1.7,1.72c3.17-0.1,6.35-0.03,9.52-0.03     c36.03,0,72.06-0.01,108.09,0.04c1.72,0,2.32-0.31,2.24-2.17c-0.17-3.8-0.15-7.62-0.01-11.42c0.07-1.84-0.41-2.36-2.31-2.35     C342.66,511.65,323.22,511.62,303.77,511.62z"/>
			<path class="st6" d="M313.92,218.6c3.41,8.24,8.2,15.7,13.18,23.04c7.42,10.95,15.68,21.31,22.8,32.48     c7.59,11.91,13.58,24.5,16.12,38.5c2.85,15.72,2.26,31.06-5.53,45.49c-0.52,0.96-0.63,2.31-1.99,2.68     c3.8-9.65,3.34-19.25-0.48-28.76c-3.41-8.48-8.44-16-13.91-23.26c-4.81-6.49-9.7-12.92-14.41-19.49     c-5.26-7.34-10.7-14.55-15.23-22.39c-7.18-12.42-10.59-25.84-10.67-40.14c-0.02-2.77-0.02-5.55-0.03-8.32     c0.45-7.47,1.3-14.89,2.85-22.31C308.38,203.85,310.45,211.46,313.92,218.6z"/>
			<path class="st4" d="M416.92,183.66c-6.2,5.89-12.39,11.78-18.59,17.67c-1.55,1.47-3.11,2.94-4.65,4.42     c-0.42,0.4-0.76,0.7-1.44,0.39c-0.65-0.3-0.73-0.72-0.7-1.32c0.38-9.81,0.74-19.63,1.11-29.44c0.04-1.02,0.11-2.03,0.18-3.08     c-0.64,0.14-0.74,0.62-0.93,1.05c-2.74,6.3-5.51,12.59-8.23,18.9c-0.47,1.08-0.87,2.21-1.16,3.36c-0.55,2.18,0.24,3.82,2.08,5.1     c0.8,0.55,2.41,0.97,1.5,2.43c-0.91,1.46-1.95,0.02-2.8-0.32c-3.52-1.41-6.98-2.96-10.45-4.5c-0.63-0.28-1.72-0.33-1.2-1.57     c0.44-1.06,1.22-0.73,1.99-0.57c3.7,0.79,4.79,0.41,6.39-3.07c3.07-6.67,6-13.41,8.88-20.17c1.14-2.67,0.51-4.37-1.91-6.15     c-0.74-0.55-1.84-0.92-1.04-2.14c0.78-1.19,1.59-0.09,2.25,0.18c2.78,1.12,5.46,2.52,8.27,3.54c1.8,0.65,2.1,1.7,2.03,3.4     c-0.36,8.78-0.62,17.57-0.94,26.91c2.86-2.73,5.45-5.08,7.9-7.56c4.05-4.12,8.59-7.78,12.2-12.33c0.57-0.72,1.03-0.7,1.78-0.36     c3.09,1.4,6.21,2.74,9.33,4.1c0.57,0.25,1.19,0.36,0.9,1.31c-0.31,1.01-0.94,0.97-1.65,0.73c-4.27-1.43-4.45,0.14-5.74,3.12     c-3.05,7.03-6.15,14.03-9.21,21.05c-1.24,2.85-1.03,3.58,1.52,5.33c0.69,0.47,1.71,0.71,1.11,1.92     c-0.67,1.36-1.49,0.34-2.15,0.06c-4.14-1.76-8.28-3.55-12.38-5.4c-0.6-0.27-1.96-0.11-1.28-1.65c0.55-1.24,1.29-0.59,1.94-0.4     c4.03,1.15,4.3,1.05,5.94-2.69c3.2-7.29,6.39-14.58,9.58-21.87C417.19,183.91,417.06,183.78,416.92,183.66z"/>
			<path class="st4" d="M113.16,274.83c5.75-0.68,11.32-1.3,16.88-2.03c1.96-0.26,3.53-1.39,4.7-2.97c0.57-0.76,1.07-0.74,1.77-0.25     c0.82,0.58,0.26,1.09-0.03,1.6c-0.35,0.62-0.89,1.15-1.12,1.81c-1.87,5.28-5.77,6.66-11.03,6.46c-3.92-0.15-7.88,0.64-11.83,0.91     c-2.04,0.14-2.35,1.89-3.19,3.14c-0.27,0.4,0.28,0.65,0.6,0.85c3.09,1.92,6.15,3.89,9.28,5.74c1.74,1.02,2.72-0.33,3.78-1.44     c0.54-0.56,0.71-2.06,2.09-1.15c1.57,1.03,0.05,1.83-0.35,2.5c-2.13,3.61-4.39,7.14-6.64,10.68c-0.38,0.6-0.59,1.6-1.74,0.91     c-1.05-0.62-0.52-1.26-0.19-1.98c1.41-3.17,1.33-3.42-1.68-5.3c-6.78-4.23-13.57-8.45-20.35-12.66     c-2.87-1.78-3.03-1.75-5.37,0.72c-0.54,0.57-0.87,1.63-2.02,0.76c-1.22-0.92-0.12-1.55,0.26-2.16c2.76-4.52,5.57-9.02,8.39-13.51     c1.27-2.02,2.73-3.88,4.72-5.28c2.65-1.86,5.43-2.5,8.47-1.01c3.26,1.6,5.17,4.18,5.22,7.85     C113.79,270.83,113.4,272.64,113.16,274.83z M110.19,274.82c-0.02-3.87-2.34-6.77-6.18-7.93c-2.9-0.88-5.54,0.28-7.61,3.39     c-0.7,1.05-1.34,2.15-2.04,3.21c-0.44,0.66-0.32,1.03,0.38,1.46c3.79,2.31,7.54,4.66,11.3,7.02c0.55,0.34,0.96,0.49,1.37-0.18     C108.77,279.56,110.42,277.46,110.19,274.82z"/>
			<path class="st4" d="M355.36,616.69c3.75,3.32,7.42,6.58,11.1,9.83c1.96,1.73,4.14,2.96,6.86,2.62c0.85-0.1,1.17,0.22,1.35,0.92     c0.22,0.87-0.25,1.08-0.99,1.21c-2.57,0.45-5.14,0.9-7.7,1.44c-1.18,0.25-1.92-0.22-2.69-1.02c-3.79-3.95-7.88-7.58-11.91-11.27     c-1.21-1.11-2.39-1.25-3.87-1.01c-1.34,0.22-1.42,0.94-1.2,2.02c0.58,2.87,1.08,5.75,1.68,8.62c0.61,2.91,1.12,3.24,4,3.08     c0.7-0.04,1.73-0.8,2.01,0.72c0.29,1.59-0.93,1.17-1.63,1.3c-4.19,0.82-8.39,1.58-12.59,2.35c-0.68,0.12-1.51,0.77-1.75-0.63     c-0.18-1.05,0.4-1.11,1.12-1.37c3.44-1.24,3.5-1.3,2.84-4.99c-1.42-7.94-2.92-15.87-4.35-23.82c-0.39-2.19-1.7-2.81-3.74-2.62     c-0.87,0.08-2.07,0.38-2.19-1.05c-0.13-1.57,1.26-1.1,2.03-1.25c5.52-1.06,11.04-2.05,16.57-3.07c1.82-0.33,3.62-0.26,5.43,0.11     c3.3,0.68,5.72,2.39,6.53,5.77c0.84,3.47,0.21,6.65-2.65,9.06C358.35,614.72,356.92,615.59,355.36,616.69z M355.91,608.87     c-0.03-4.55-2.7-7.63-6.76-7.51c-1.8,0.05-3.58,0.62-5.38,0.86c-1.18,0.16-0.87,0.92-0.75,1.58c0.74,4.04,1.51,8.08,2.27,12.11     c0.11,0.58,0.05,1.38,0.98,1.31C351.28,616.85,355.96,614.48,355.91,608.87z"/>
			<path class="st4" d="M244.87,630.36c2.12,0.37,3.16-0.63,3.53-2.74c1.45-8.25,2.97-16.5,4.48-24.74c0.33-1.82-0.16-3.11-2.1-3.6     c-0.46-0.11-0.88-0.33-1.33-0.48c-0.73-0.24-0.92-0.72-0.8-1.46c0.16-1,0.84-0.78,1.44-0.67c5.91,1.08,11.83,2.13,17.72,3.29     c1.3,0.26,2.59,0.77,3.77,1.38c3.24,1.68,5.39,4.11,5.13,8.06c-0.26,3.94-2.47,6.62-6.32,8.07c-1.38,0.52-3.67-0.16-4,1.49     c-0.23,1.15,1.19,2.63,1.88,3.96c1.54,2.94,3.1,5.87,4.64,8.81c1.18,2.25,2.78,4.06,5.31,4.77c0.87,0.24,1.14,0.57,0.97,1.48     c-0.24,1.27-0.97,0.64-1.58,0.54c-1.64-0.28-3.27-0.8-4.91-0.81c-3.19-0.03-4.53-1.76-5.67-4.53c-1.81-4.37-4.21-8.48-6.27-12.75     c-0.67-1.39-1.64-1.87-3.11-2.1c-1.34-0.21-1.66,0.28-1.84,1.37c-0.48,2.89-0.86,5.8-1.54,8.64c-0.6,2.51,0.33,3.77,2.66,4.32     c0.89,0.21,2.08,0.19,1.64,1.66c-0.43,1.45-1.44,0.49-2.15,0.38c-3.98-0.64-7.96-1.3-11.91-2.09c-0.69-0.14-2.19,0.34-1.96-1.3     C242.76,629.75,244.01,630.57,244.87,630.36z M269.93,607.96c-0.04-2.18-1.05-4.13-3.22-5.4c-2.04-1.19-4.39-1.22-6.62-1.72     c-0.93-0.21-0.94,0.5-1.05,1.16c-0.73,4.05-1.47,8.09-2.25,12.12c-0.23,1.18,0.06,1.82,1.33,1.9c0.63,0.04,1.25,0.19,1.87,0.3     C265.33,617.34,269.82,613.7,269.93,607.96z"/>
			<path class="st4" d="M86.86,423.44c-6.65,1.21-13.23,2.11-19.67,3.77c-2.21,0.57-3.56,1.99-3.41,4.48     c0.04,0.63-0.09,1.27-0.09,1.9c0.01,0.85-0.48,1.06-1.2,1.11c-0.77,0.06-0.91-0.4-1.01-1c-0.78-4.36-1.6-8.72-2.36-13.08     c-0.11-0.65-0.35-1.41,0.77-1.63c1.07-0.21,1.14,0.57,1.42,1.17c1.87,4.01,2.36,4.38,6.71,3.65c8.74-1.48,17.45-3.11,26.18-4.63     c0.81-0.14,1.9-0.93,2.47,0.3c0.5,1.08,0.18,2.01-0.69,2.97c-7.32,8.13-14.57,16.32-21.83,24.5c-0.51,0.57-1.21,1.01-1.44,2.13     c3.15-0.2,6.09-0.99,9.06-1.53c3.58-0.66,7.18-1.22,10.74-1.99c4.09-0.89,4.94-2.02,5.15-6.16c0.04-0.8-0.36-1.84,1.09-1.89     c1.27-0.04,1.07,0.99,1.2,1.66c0.81,4.2,1.57,8.4,2.31,12.61c0.1,0.55,0.5,1.26-0.54,1.49c-0.82,0.18-1.39,0.1-1.64-0.81     c-1.2-4.27-2.52-4.71-8.21-3.77c-5.78,0.96-11.53,2.09-17.3,3.1c-4.23,0.73-5.46,1.94-6.15,6.25c-0.07,0.47-0.12,0.94-0.19,1.41     c-0.11,0.73-0.72,0.77-1.26,0.84c-0.68,0.09-0.7-0.45-0.79-0.92c-0.58-3.11-1.17-6.22-1.76-9.33c-0.2-1.08,0.7-1.54,1.24-2.16     c6.75-7.58,13.53-15.13,20.28-22.7C86.31,424.78,86.88,424.51,86.86,423.44z M87.36,423.36l-0.08,0.12l0.15,0.01L87.36,423.36z"/>
			<path class="st4" d="M224.66,605.98c1.28,0.99,2.16,1.62,2.99,2.31c3.35,2.82,4.57,6.36,3.42,9.88c-1.27,3.89-4.27,6.06-8.83,6.3     c-2.32,0.12-4.57-0.27-6.75-1.1c-5.17-1.98-10.34-3.93-15.49-5.94c-0.63-0.24-1.73-0.22-1.37-1.47c0.39-1.34,1.3-0.78,2.11-0.61     c2.99,0.64,3.49,0.37,4.6-2.51c2.82-7.29,5.64-14.58,8.45-21.88c1.13-2.94,0.94-3.53-1.64-5.35c-0.62-0.44-1.54-0.65-1.03-1.75     c0.62-1.32,1.45-0.48,2.17-0.2c5.02,1.9,10.04,3.81,15.04,5.75c1.85,0.72,3.6,1.67,5.03,3.08c2.09,2.06,3.31,4.41,2.44,7.47     c-0.89,3.12-2.89,4.95-6.04,5.68C228.24,605.99,226.7,606.03,224.66,605.98z M225.36,612.77c0.07-1.53-0.47-2.82-1.34-4     c-2.02-2.74-5.23-3.38-8.14-4.53c-0.88-0.35-1,0.46-1.23,1.04c-1.3,3.38-2.6,6.77-3.92,10.15c-0.6,1.55-0.24,2.84,1.1,3.74     c2.66,1.78,5.55,2.98,8.67,1.46C223.68,619.08,224.99,616.16,225.36,612.77z M222.66,603.73c0.86-0.04,1.72,0.05,2.55-0.36     c2.94-1.45,4.16-3.97,4.38-7.07c0.22-3.04-1.73-4.55-4.21-5.6c-1.01-0.43-2.06-0.79-3.08-1.2c-0.94-0.37-1.53-0.33-1.94,0.85     c-1.21,3.42-2.55,6.79-3.9,10.16c-0.32,0.79-0.41,1.38,0.53,1.68C218.85,602.79,220.61,603.8,222.66,603.73z"/>
			<path class="st4" d="M291.74,152.6c10.76-0.02,18.58,8.16,18.62,19.49c0.04,10.93-7.92,19.08-18.72,19.16     c-10.66,0.08-18.72-8.46-18.68-19.78C273.01,160.71,281.05,152.63,291.74,152.6z M279.9,170.64c-0.07,4.18,0.44,8.01,2.24,11.55     c2.2,4.34,5.58,6.77,10.67,6.4c4.85-0.36,8.04-3.04,9.47-7.44c2.27-6.97,1.89-13.95-1.59-20.5c-2.07-3.91-5.55-5.79-10.02-5.53     c-4.36,0.26-7.39,2.56-9.18,6.49C280.15,164.56,279.78,167.69,279.9,170.64z"/>
			<path class="st4" d="M89.6,315.47c-0.02-2.16-1.24-3.36-2.73-4.37c-0.81-0.55-1.65-1.08-0.97-2.23c0.7-1.18,1.53-0.3,2.25-0.05     c3.35,1.18,6.69,2.41,10.02,3.65c0.74,0.28,1.82,0.29,1.37,1.67c-0.41,1.25-1.29,0.9-2.12,0.81c-3.88-0.43-7.9,3.55-7.57,7.47     c0.05,0.65,0.49,0.71,0.93,0.87c3.5,1.25,6.99,2.51,10.48,3.78c1.84,0.67,3.18-0.05,3.88-1.71c1.1-2.62,2.04-5.31,2.97-7.99     c0.77-2.22,0.28-4.19-1.33-5.92c-1.08-1.16-2.04-2.43-3.17-3.54c-0.69-0.68-0.77-1.19-0.36-2.06c0.58-1.22,1.26-0.28,1.72-0.09     c2.41,0.99,4.75,2.15,7.15,3.15c1.06,0.45,1.45,0.88,0.99,2.11c-3.44,9.17-6.81,18.37-10.19,27.56c-0.25,0.67-0.3,1.38-1.43,0.94     c-1.01-0.39-0.75-0.89-0.6-1.64c0.81-4.14,0.74-4.19-3.19-5.63c-7.2-2.63-14.39-5.29-21.58-7.94c-3.07-1.13-3.58-0.95-5.41,1.89     c-0.47,0.73-0.68,1.97-2.04,1.24c-1.27-0.68-0.3-1.53-0.05-2.22c2.97-8.17,6.02-16.31,8.95-24.49c0.5-1.41,0.98-1.91,2.46-1.23     c1.79,0.82,3.69,1.4,5.53,2.11c0.47,0.18,1.27,0.18,0.98,1c-0.21,0.6-0.23,1.49-1.24,1.48c-0.4,0-0.8,0-1.19,0.06     c-3.59,0.54-6.48,1.89-7.51,5.83c-0.5,1.9-1.31,3.72-2.05,5.55c-0.42,1.04-0.48,1.67,0.84,2.12c3.59,1.22,7.13,2.56,10.67,3.93     c1.07,0.41,1.59,0.19,1.9-0.89C88.48,318.9,89.42,317.21,89.6,315.47z"/>
			<path class="st4" d="M435.68,596.38c0.61-1.39-0.98-3.59,1.14-3.96c1.86-0.32,1.7,2.05,2.28,3.24c0.98,2.01,3.08,4.34,2.3,6.13     c-0.7,1.6-3.59,2.28-5.53,3.31c-6.77,3.6-13.54,7.19-20.33,10.75c-0.63,0.33-1.36,1.42-2.16,0.09c-0.75-1.24,0.37-1.46,1-1.92     c2.79-2.02,2.88-2.38,1.27-5.43c-3.63-6.84-7.25-13.68-10.88-20.53c-1.51-2.85-2.07-3.06-5.29-2.17c-0.74,0.2-1.6,0.91-2.21-0.33     c-0.69-1.4,0.62-1.42,1.23-1.75c7.59-4.07,15.22-8.07,22.82-12.14c1.21-0.65,1.96-0.89,2.61,0.7c0.71,1.75,1.78,3.34,2.62,5.05     c0.21,0.44,1.07,1,0.07,1.55c-0.62,0.34-1.17,0.8-1.93,0.18c-0.67-0.55-1.41-1.02-2.16-1.45c-2.43-1.39-4.87-1.67-7.41-0.18     c-1.84,1.08-3.74,2.06-5.68,2.95c-1.37,0.63-1.37,1.31-0.68,2.53c1.76,3.09,3.41,6.24,5.02,9.42c0.52,1.03,0.97,1.48,2.08,0.73     c0.85-0.57,1.81-0.98,2.7-1.49c2.84-1.62,3.53-3.06,2.8-6.28c-0.23-1.02-0.52-1.81,0.75-2.28c1.4-0.52,1.33,0.81,1.66,1.39     c1.77,3.17,3.45,6.4,5.12,9.63c0.27,0.53,1.02,1.1-0.06,1.72c-0.85,0.48-1.32,0.34-1.99-0.36c-3.09-3.18-7.88-3.09-10.75,0.09     c-0.47,0.52-0.15,0.84,0.06,1.23c1.71,3.2,3.43,6.41,5.14,9.61c1.02,1.9,2.57,2.21,4.41,1.34c1.57-0.74,3.07-1.63,4.65-2.34     C434.29,603.62,436.6,600.89,435.68,596.38z"/>
			<path class="st4" d="M460.68,251.3c-5.52-0.39-9.8-4.52-12.59-10.6c-0.49-1.08-0.71-2.32-2.46-1.57     c-0.77,0.33-1.23-0.59-1.66-1.11c-0.62-0.75,0.26-1.13,0.61-1.54c1.96-2.28,3.94-4.56,6-6.75c0.49-0.52,0.76-1.81,1.98-1.07     c1.1,0.67,1.05,1.47,0.5,2.6c-1.16,2.36-1.8,4.86-1.66,7.55c0.22,4.15,2.4,6.94,5.91,8.81c2.01,1.07,4,0.78,5.77-0.61     c2.12-1.67,3.25-3.85,2.94-6.62c-0.23-2.01-1.32-3.7-2.18-5.47c-1.06-2.2-2.3-4.33-3.04-6.68c-1.29-4.08-0.6-7.67,2.66-10.58     c3.11-2.78,6.69-3,10.43-1.64c4.21,1.53,6.9,4.62,8.47,8.74c0.39,1.03,0.46,2.18,2.15,1.48c0.8-0.33,1.39,0.64,1.82,1.26     c0.43,0.63-0.36,0.92-0.68,1.27c-2.11,2.36-4.26,4.68-6.41,7.02c-0.4,0.43-0.7,1.24-1.47,0.57c-0.62-0.55-1.35-0.99-0.73-2.15     c1.07-2.01,1.97-4.11,2.23-6.45c0.28-2.51-0.35-4.69-1.99-6.58c-2.18-2.52-5.29-3.35-7.64-2.07c-2.55,1.4-3.75,4.74-2.57,7.88     c0.91,2.43,2.17,4.73,3.23,7.11c0.61,1.37,1.22,2.75,1.65,4.18C474.07,245.26,469.53,251.31,460.68,251.3z"/>
			<path class="st4" d="M114.34,484.23c-0.02,5.23-2.03,8.25-6.83,10.29c-5.82,2.47-11.63,4.95-17.44,7.43     c-3.04,1.3-3.36,1.85-2.87,5.04c0.13,0.85,0.61,1.69-0.75,2c-1.26,0.29-1.18-0.8-1.45-1.39c-1.69-3.83-3.33-7.68-4.94-11.55     c-0.28-0.68-1.19-1.47,0.18-2.15c1.2-0.6,1.33,0.42,1.72,0.99c2.03,2.92,2.2,2.98,5.38,1.62c5.59-2.39,11.18-4.77,16.76-7.17     c3.35-1.44,6.33-3.39,6.37-7.46c0.04-4.35-1.7-8.05-5.44-10.48c-2.43-1.58-5.15-1.52-7.76-0.44c-5.18,2.14-10.35,4.32-15.45,6.64     c-4.42,2.01-4.85,2.96-3.94,7.74c0.16,0.86,0.16,1.32-0.71,1.64c-1.07,0.39-1.16-0.44-1.43-1.06c-1.73-3.99-3.46-7.98-5.16-11.98     c-0.25-0.59-0.79-1.25,0.32-1.73c0.9-0.39,1.18,0.04,1.64,0.67c2.64,3.68,3.18,3.9,7.49,2.18c5.05-2.02,10.12-4.05,15.02-6.41     c7.23-3.49,12.82,0.11,15.88,4.65C113.15,476.61,114.4,480.22,114.34,484.23z"/>
			<path class="st4" d="M118.49,239.96c-0.02-5.28,3.51-10.05,9.18-12.39c1.02-0.42,2.45-0.43,1.64-2.29     c-0.3-0.69,0.57-1.24,1.11-1.67c0.77-0.62,1.09,0.28,1.48,0.62c2.28,1.97,4.53,3.97,6.73,6.03c0.46,0.43,1.59,0.65,0.83,1.79     c-0.73,1.1-1.48,1.07-2.57,0.5c-1.67-0.88-3.44-1.54-5.33-1.89c-3.07-0.57-5.63,0.31-7.78,2.49c-2.04,2.07-2.6,5.08-1.39,7.17     c1.37,2.37,4.36,3.51,7.24,2.67c2.91-0.85,5.45-2.52,8.19-3.75c2.75-1.23,5.5-2.59,8.64-2.01c6.25,1.15,9.69,7.64,7.53,14.21     c-1.65,5.01-5.34,8.12-9.96,10.25c-1.05,0.49-2.09,0.74-1.54,2.28c0.35,0.97-0.52,1.47-1.12,1.88c-0.7,0.48-1.09-0.35-1.53-0.73     c-2.34-2.02-4.69-4.03-6.97-6.12c-0.46-0.42-1.65-0.67-0.86-1.77c0.62-0.85,1.28-1.24,2.37-0.62c1.45,0.82,3.06,1.27,4.7,1.58     c4.27,0.8,7.81-0.43,10.57-3.81c2.16-2.65,2.46-5.06,0.92-7.39c-1.82-2.76-5-3.95-8.07-3.01c-2.52,0.77-4.69,2.27-7.05,3.37     c-1.79,0.84-3.54,1.73-5.53,2.08C123.68,250.51,118.51,246.26,118.49,239.96z"/>
			<path class="st4" d="M485.48,279.4c-4.82-0.32-8.69-3.62-11.29-8.64c-0.72-1.39-1.29-2.9-1.62-4.43     c-0.3-1.35-0.41-2.44-2.26-2.13c-0.79,0.13-1.15-0.78-1.43-1.4c-0.33-0.71,0.44-0.91,0.83-1.21c2.53-2.03,5.08-4.05,7.66-6.03     c0.45-0.34,0.87-1.38,1.68-0.39c0.55,0.68,1.13,1.24,0.36,2.24c-1.36,1.76-2.45,3.7-2.97,5.89c-0.9,3.8-0.19,7.21,2.54,10.12     c1.83,1.96,4,2.99,6.6,1.95c2.67-1.07,4.36-3.07,4.62-6.08c0.2-2.37-0.74-4.5-1.34-6.7c-0.69-2.51-1.53-4.96-1.69-7.61     c-0.25-4.02,1.45-6.92,4.76-8.9c3.37-2.02,6.84-1.63,10.15,0.22c4.09,2.28,6.24,5.95,7.01,10.46c0.18,1.05,0.26,1.85,1.67,1.59     c0.97-0.18,1.39,0.72,1.68,1.41c0.35,0.82-0.55,1.02-1,1.37c-2.42,1.92-4.86,3.81-7.31,5.69c-0.52,0.4-1.06,1.1-1.74,0.1     c-0.44-0.66-0.93-1.14-0.24-2.02c1.42-1.81,2.68-3.72,3.34-5.97c0.9-3.07,0.31-5.79-1.8-8.17c-1.92-2.15-4.42-2.84-6.59-1.86     c-2.53,1.15-4.06,4.04-3.59,6.86c0.68,4.06,2.33,7.88,2.98,11.95C497.5,274.08,493.03,279.41,485.48,279.4z"/>
			<path class="st4" d="M512.76,357.48c0.06-0.71,0.09-1.98,0.31-3.23c0.27-1.52,1.26-2.97-0.99-4.08     c-0.75-0.37-1.19-2.07,0.91-2.38c3.2-0.48,6.37-1.22,9.54-1.88c0.7-0.15,1.43-0.53,1.67,0.56c0.17,0.79,0.28,1.51-0.71,1.98     c-2.01,0.96-3.84,2.22-5.32,3.91c-2.32,2.65-3.44,5.63-2.61,9.19c0.9,3.87,2.73,5.74,5.82,5.81c3.47,0.07,6.36-2.11,7.25-5.66     c0.59-2.37,0.91-4.82,1.45-7.21c0.34-1.53,0.71-3.09,1.33-4.53c2.66-6.24,10.44-7.92,15.36-3.24c4.2,4,5.04,8.96,3.49,14.41     c-0.31,1.1-0.77,2.05,0.82,2.56c0.77,0.25,0.71,1.22,0.72,1.88c0.02,0.89-0.89,0.76-1.43,0.87c-3.03,0.59-6.07,1.11-9.1,1.64     c-0.63,0.11-1.45,0.71-1.65-0.5c-0.14-0.85-0.31-1.61,0.82-2.15c1.56-0.74,3.07-1.66,4.44-2.71c2.81-2.15,3.96-5.02,3.32-8.57     c-0.47-2.61-2.52-4.85-4.88-5.19c-2.16-0.31-4.9,1.21-6.04,3.43c-1.54,3.01-1.58,6.43-2.43,9.62c-0.33,1.22-0.59,2.46-1,3.65     c-2.25,6.52-9.59,8.95-15.23,4.97C514.29,367.6,512.76,363.15,512.76,357.48z"/>
			<path class="st4" d="M503.26,320.38c0.01-0.17,0.05-0.72,0.09-1.27c0.06-1.01,0.37-2.09-1.29-2.18c-1.01-0.06-1.05-1.11-1.2-1.83     c-0.19-0.9,0.73-0.86,1.25-1.07c2.94-1.15,5.89-2.29,8.84-3.41c0.69-0.26,1.42-0.87,1.95,0.32c0.44,0.97,0.22,1.58-0.64,2.17     c-1.84,1.28-3.37,2.88-4.52,4.82c-1.86,3.15-2.11,6.39-0.61,9.76c1.42,3.16,3.26,4.44,6.15,4.19c3.01-0.26,5.55-2.36,6.3-5.29     c0.55-2.17,0.36-4.41,0.46-6.62c0.09-2.13-0.07-4.26,0.36-6.39c0.85-4.2,3.35-6.76,7.42-7.72c3.93-0.92,7.19,0.57,9.79,3.45     c2.74,3.03,3.78,6.69,3.48,10.76c-0.1,1.32-0.73,2.72,1.42,3.36c1.25,0.37,0.99,2.08-0.3,2.57c-2.95,1.13-5.91,2.22-8.88,3.29     c-0.59,0.21-1.35,0.76-1.72-0.34c-0.26-0.75-0.54-1.44,0.37-2.08c1.69-1.18,3.3-2.47,4.56-4.14c2.16-2.84,2.53-5.9,1-9.12     c-1.03-2.18-2.8-3.48-5.2-3.58c-2.23-0.09-4.71,1.93-5.54,4.22c-0.83,2.29-0.52,4.71-0.7,7.07c-0.15,1.97-0.16,3.96-0.35,5.92     c-0.74,7.93-8.86,11.88-15.62,7.63C505.79,332.14,503.31,327.06,503.26,320.38z"/>
			<path class="st4" d="M520.13,472.45c0.09-3.29,0.73-6.07,1.83-8.71c0.59-1.42,0.33-2.04-1.16-2.46     c-2.66-0.75-5.31-1.58-7.89-2.56c-2.22-0.85-3.67-0.37-4.5,1.89c-0.13,0.37-0.34,0.71-0.5,1.07c-0.26,0.56-0.37,1.25-1.31,0.9     c-0.86-0.32-1.02-0.82-0.73-1.65c1.53-4.49,3.06-8.98,4.53-13.48c0.23-0.7,0.42-1.13,1.27-0.93c0.83,0.19,0.85,0.67,0.81,1.4     c-0.26,4.26-0.25,4.27,3.89,5.64c7.19,2.38,14.39,4.73,21.59,7.1c3.24,1.07,3.58,0.94,5.2-2.1c0.11-0.21,0.2-0.43,0.29-0.65     c0.29-0.69,0.64-0.91,1.45-0.59c0.85,0.33,0.81,0.68,0.56,1.41c-1.99,5.83-3.92,11.68-5.9,17.52c-0.28,0.81-0.72,1.59-1.2,2.31     c-2.14,3.22-4.88,5.5-9.02,5.01c-4.17-0.49-7.63-3.67-8.67-7.78C520.36,474.57,520.26,473.3,520.13,472.45z M531.93,476.7     c1.13,0.03,2.21-0.08,3.23-0.62c3.18-1.68,3.67-4.96,4.69-7.91c0.25-0.72-0.49-0.64-0.88-0.77c-4.34-1.44-8.69-2.88-13.03-4.32     c-0.49-0.16-0.94-0.58-1.26,0.32c-1.09,3.01-2.2,6.05-0.52,9.15C525.8,475.56,528.7,476.5,531.93,476.7z"/>
			<path class="st4" d="M520.2,420.65c-2.23-0.61-2.94,1.21-3.42,3.3c-0.18,0.79,0.04,1.85-1.4,1.66c-1.63-0.22-0.76-1.25-0.68-1.96     c0.51-4.24,1.03-8.49,1.64-12.72c0.11-0.77-0.3-2.12,1.32-1.96c1.47,0.14,0.93,1.28,0.88,2.01c-0.17,2.49,0.91,3.5,3.39,3.8     c8.17,0.98,16.33,2.08,24.48,3.29c2.5,0.37,3.68-0.5,4.26-2.83c0.18-0.7-0.09-2.2,1.52-1.81c1.53,0.37,0.74,1.58,0.64,2.35     c-0.71,5.57-1.52,11.14-2.29,16.7c-0.05,0.39-0.08,0.79-0.18,1.17c-1.42,5.47-5.19,8.75-9.69,8.45     c-5.35-0.37-9.5-4.54-10.13-10.24c-0.3-2.69-0.24-5.39,0.36-8.04c0.29-1.3-0.1-1.88-1.46-2.02     C526.54,421.5,523.63,421.08,520.2,420.65z M535.46,422.68c-1.9-0.16-1.9-0.16-2.26,2.31c-0.73,5.04,1.07,8.54,5.12,9.62     c7.24,1.92,10.55-1.94,10.86-9.02c0.05-1.25-0.77-1.22-1.5-1.32C543.61,423.72,539.54,423.21,535.46,422.68z"/>
			<path class="st4" d="M470.59,575.71c-0.09,6.03-4.76,11.42-11.78,13.59c-1.34,0.42-3.08,0.16-2.78,2.61     c0.14,1.13-1.75,1.51-2.58,0.54c-2.1-2.48-4.16-4.99-6.22-7.51c-0.35-0.43-1.11-0.84-0.36-1.55c0.66-0.62,1.26-1.1,2.26-0.4     c1.75,1.23,3.63,2.17,5.74,2.72c3.71,0.96,6.89,0.04,9.69-2.42c2.52-2.22,3.18-4.68,1.98-7.17c-1.35-2.82-4.44-4.6-7.38-4.01     c-2.16,0.43-4.25,1.2-6.38,1.79c-1.67,0.46-3.34,0.97-5.04,1.32c-3.84,0.79-7.05-0.32-9.48-3.45c-2.36-3.04-2.58-6.38-1.11-9.85     c1.95-4.61,5.62-7.13,10.38-8.15c1.15-0.25,1.97-0.36,1.73-1.83c-0.14-0.86,0.72-1.18,1.3-1.52c0.81-0.48,1.09,0.37,1.45,0.8     c1.92,2.32,3.82,4.66,5.67,7.03c0.35,0.45,1.4,0.85,0.44,1.7c-0.75,0.66-1.4,1.09-2.44,0.26c-1.54-1.23-3.25-2.22-5.17-2.84     c-3.25-1.05-6.09-0.39-8.59,1.84c-1.79,1.6-2.61,4.4-1.7,6.27c1.07,2.19,2.8,3.56,5.41,3.62c2.19,0.05,4.22-0.6,6.25-1.26     c2.33-0.76,4.66-1.5,7.08-1.93C465.35,564.76,470.69,569.25,470.59,575.71z"/>
			<path class="st4" d="M323.64,153.14c8.7,0.95,17.28,1.92,25.86,2.8c1.32,0.14,1.75,0.51,1.54,1.87c-0.31,2.03-0.4,4.1-0.61,6.15     c-0.06,0.6,0.03,1.41-0.88,1.4c-0.78,0-1.61-0.11-1.81-1.14c-0.07-0.38-0.2-0.76-0.34-1.13c-1.35-3.38-3.37-5.86-7.42-5.95     c-1.97-0.04-3.94-0.35-5.91-0.62c-1.41-0.19-2.11,0.04-2.21,1.76c-0.22,3.71-0.68,7.41-1.18,11.1c-0.16,1.18,0.09,1.5,1.25,1.51     c1.26,0.01,2.51,0.33,3.78,0.38c3.29,0.14,4.61-0.71,5.82-3.73c0.36-0.9,0.6-1.83,1.91-1.45c1.4,0.41,0.61,1.4,0.54,2.13     c-0.33,3.55-0.7,7.09-1.11,10.63c-0.08,0.69,0.35,1.72-0.92,1.83c-1.15,0.1-1.36-0.57-1.55-1.57c-0.87-4.4-5-6.96-9.33-5.96     c-1.03,0.24-0.88,1-0.96,1.65c-0.37,3.15-0.72,6.3-1.01,9.45c-0.29,3.1,0.12,3.68,3.13,4.58c0.91,0.27,2.05,0.24,1.64,1.69     c-0.38,1.35-1.44,0.61-2.16,0.54c-3.86-0.36-7.72-0.81-11.57-1.23c-0.55-0.06-1.12-0.06-1.65-0.17     c-0.63-0.14-1.41-0.02-1.35-1.18c0.06-1.16,0.74-0.95,1.44-0.97c4.1-0.15,4.18-0.15,4.64-4.24c0.89-7.79,1.65-15.59,2.55-23.38     c0.26-2.23-0.41-3.61-2.6-4.37c-0.85-0.29-2.61,0.18-2.28-1.65C321.28,151.72,322.88,153.83,323.64,153.14z"/>
			<path class="st5" d="M299.32,564.86c0,3.33-0.05,6.65,0.03,9.98c0.03,1.32-0.31,1.76-1.71,1.72c-3.8-0.12-7.55-0.62-11.33-0.97     c-1.11-0.1-1.26-0.65-1.26-1.55c0.02-6.49-0.11-12.99,0.07-19.48c0.11-4.06,2.37-6.51,5.8-6.97c3.74-0.51,6.9,1.23,7.95,4.5     c0.66,2.06,0.44,4.23,0.45,6.36C299.32,560.58,299.32,562.72,299.32,564.86z"/>
			<path class="st4" d="M228.97,184.06c1.39-5.13,2.53-9.96,3.44-14.85c0.3-1.64-0.39-2.44-2.08-2.24c-0.86,0.11-1.7,0.33-2.56,0.48     c-0.53,0.09-0.92-0.08-1.05-0.67c-0.11-0.55-0.3-1.06,0.47-1.33c3.8-1.33,7.59-2.69,11.39-4.03c0.46-0.16,0.77,0.07,0.89,0.5     c0.15,0.52,0.48,1.14-0.13,1.52c-4.26,2.65-4.24,7.35-5.46,11.42c-0.64,2.11-0.75,4.4-1.47,6.47c-1.9,5.49,0.57,10.21,2.35,15.07     c0.4,1.09,1.29,1.61,2.43,1.53c1.02-0.07,2.04-0.25,3.06-0.4c0.74-0.11,1.41-0.2,1.66,0.8c0.22,0.9-0.36,1.11-0.96,1.32     c-5,1.75-10,3.48-14.99,5.25c-0.8,0.29-1.13,0-1.43-0.69c-0.31-0.7-0.02-1.03,0.55-1.29c0.65-0.3,1.29-0.61,1.94-0.9     c2.04-0.9,2.31-2.24,1.77-4.42c-1.45-5.85-4.41-10.51-9.29-14.08c-2.68-1.96-5.08-4.29-7.62-6.45c-1.69-1.44-3.58-2.37-5.87-1.95     c-0.86,0.16-1.37-0.02-1.61-0.87c-0.32-1.14,0.67-1.09,1.25-1.3c4.32-1.54,8.65-3.03,12.97-4.55c0.69-0.24,1.26-0.53,1.67,0.49     c0.42,1.06-0.23,1.15-0.92,1.47c-3.88,1.84-3.88,1.87-0.58,4.77C222.11,178.08,225.45,180.98,228.97,184.06z"/>
			<path class="st4" d="M172.43,198.65c0.11,0.86,0.19,1.73,0.35,2.58c0.18,0.96-0.49,1.23-1.14,1.53c-0.77,0.36-0.93-0.3-1.19-0.75     c-1.26-2.2-2.45-4.43-3.77-6.58c-0.56-0.92-0.37-1.32,0.51-1.82c9.08-5.13,18.15-10.29,27.2-15.48c0.97-0.56,1.38-0.16,1.82,0.64     c1.19,2.14,2.43,4.26,3.61,6.4c0.27,0.49,0.86,1.04,0.02,1.6c-0.63,0.42-1.16,0.62-1.88,0.01c-0.83-0.71-1.8-1.29-2.77-1.81     c-4.68-2.52-5.54-1.45-9.82,0.94c-1.36,0.76-0.27,1.52,0.08,2.14c3.88,6.89,7.8,13.75,11.71,20.62c0.23,0.41,0.47,0.82,0.7,1.24     c2.11,3.76,2.28,3.8,6.31,2.45c0.75-0.25,1.72-1.24,2.37,0.25c0.6,1.37-0.69,1.39-1.31,1.76c-4.23,2.47-8.49,4.9-12.76,7.29     c-0.56,0.31-1.2,1.23-1.99,0.1c-0.83-1.2,0.19-1.48,0.83-1.96c3.65-2.74,3.67-2.8,1.46-6.67c-4.14-7.28-8.34-14.53-12.38-21.87     c-0.92-1.67-1.64-1.59-3.17-0.82C173.74,192.16,172.2,194.84,172.43,198.65z"/>
			<path class="st4" d="M90.37,361.14c-7.12-4.24-13.72-8.27-20.42-12.13c-2.83-1.63-3.82-1.11-4.93,1.96     c-0.19,0.52-0.36,1.05-0.5,1.58c-0.19,0.71-0.68,0.72-1.28,0.68c-0.79-0.05-0.89-0.51-0.8-1.13c0.64-4.14,1.29-8.29,1.91-12.43     c0.11-0.75,0.49-0.84,1.15-0.78c0.66,0.07,1.08,0.3,1.03,1c-0.26,3.48,2.2,5.01,4.67,6.52c8.49,5.22,16.98,10.43,25.47,15.65     c0.81,0.5,1.87,0.69,1.66,2.2c-0.22,1.61-1.35,1.52-2.35,1.74c-10.1,2.27-20.21,4.53-30.31,6.77c-2.35,0.52-4.04,1.75-4.81,4.08     c-0.24,0.74-0.55,1.28-1.5,1.06c-1.1-0.25-0.77-1.08-0.68-1.71c0.63-4.31,1.3-8.61,2.01-12.9c0.1-0.6-0.05-1.53,1.09-1.48     c1.18,0.05,1.08,0.82,1.09,1.66c0.07,3.83,0.09,3.86,3.73,3.04C74.31,364.79,82.01,363.03,90.37,361.14z"/>
			<path class="st5" d="M308.14,564.34c0-3.33-0.04-6.66,0.01-9.99c0.06-3.85,2.57-6.54,6.21-6.77c4.32-0.27,7.26,1.87,7.59,6     c0.57,7.04,0.11,14.1,0.23,21.15c0.02,1.08-0.54,1.28-1.48,1.33c-3.71,0.19-7.42,0.43-11.13,0.71c-1.19,0.09-1.47-0.37-1.45-1.48     C308.17,571.64,308.13,567.99,308.14,564.34z"/>
			<path class="st5" d="M330.77,563.75c0-3.01-0.05-6.02,0.01-9.03c0.09-4.49,2.78-7.16,7.08-7.14c4.32,0.02,6.93,2.7,6.95,7.22     c0.02,4.99-0.08,9.98,0.05,14.97c0.04,1.72-0.51,2.31-2.16,2.59c-3.41,0.59-6.78,1.42-10.17,2.17c-1.28,0.28-1.84-0.05-1.79-1.51     C330.84,569.93,330.77,566.84,330.77,563.75z"/>
			<path class="st4" d="M167.66,587.36c-0.25,0.3-0.54,0.67-0.85,1.01c-1.81,1.99-3.68,3.93-5.43,5.98     c-0.78,0.92-1.3,0.75-2.13,0.09c-6.94-5.53-13.92-11-20.85-16.53c-0.53-0.43-1.81-0.73-0.84-1.97c0.91-1.16,1.57-0.18,2.16,0.24     c1.93,1.36,3.35,1.09,4.83-0.82c4.83-6.27,9.73-12.5,14.73-18.64c1.64-2.02,1.82-3.71,0.05-5.62c-0.56-0.61-1.35-1.23-0.42-2.19     c1.07-1.1,1.56,0.18,2.09,0.58c3.34,2.54,6.62,5.16,9.89,7.79c0.52,0.42,1.54,0.68,0.76,1.82c-0.73,1.06-1.29,0.38-1.95,0.04     c-3.39-1.73-3.42-1.72-5.83,1.33c-4.67,5.9-9.34,11.8-13.99,17.72c-2.55,3.26-2.25,3.63,0.73,6.6c4.42,4.39,9.03,4.93,14.29,1.82     C165.98,585.99,167.58,586.47,167.66,587.36z"/>
			<path class="st5" d="M276.62,563.67c0,2.78-0.11,5.56,0.04,8.33c0.1,1.83-0.53,2.09-2.14,1.68c-3.44-0.89-6.91-1.66-10.37-2.46     c-1.21-0.28-1.79-0.79-1.75-2.24c0.12-4.84,0.02-9.68,0.06-14.52c0.03-3.69,2.52-6.54,5.91-6.88c4.24-0.42,7.02,1.48,7.92,5.41     c0.11,0.46,0.29,0.93,0.29,1.39c0.03,3.09,0.01,6.19,0.01,9.28C276.61,563.67,276.61,563.67,276.62,563.67z"/>
			<path class="st4" d="M435.91,231.85c-0.34-0.22-0.75-0.46-1.14-0.73c-3.84-2.66-7.68-5.3-11.49-8c-0.58-0.41-1.81-0.65-0.9-1.93     c0.75-1.06,1.33-0.32,1.96,0.03c3.54,1.91,3.85,1.84,6.11-1.43c4.32-6.24,8.65-12.49,12.97-18.73c2.23-3.22,2.22-3.45-0.42-6.2     c-0.27-0.29-0.56-0.56-0.84-0.84c-0.51-0.53-0.19-0.95,0.12-1.45c0.42-0.7,0.9-0.54,1.38-0.2c4.29,2.98,8.57,5.97,12.85,8.95     c0.57,0.4,0.65,0.77,0.22,1.34c-0.37,0.48-0.67,0.81-1.35,0.49c-1.53-0.71-2.98-2.23-4.8-1.17c-1.53,0.88-2.25,2.63-3.24,4.05     c-3.95,5.63-7.85,11.3-11.78,16.96c-2.28,3.28-2.26,3.42,0.61,6.38c0.43,0.45,1.42,0.72,0.84,1.67     C436.78,231.4,436.6,231.93,435.91,231.85z"/>
			<path class="st4" d="M173.43,230.98c1.37-0.12,2.35-0.82,3.38-1.38c0.65-0.36,1.13-0.73,1.78,0.1c0.71,0.9,0.09,1.21-0.48,1.66     c-3.85,3.05-7.68,6.12-11.53,9.16c-0.48,0.38-0.92,1.21-1.74,0.29c-0.76-0.85-0.32-1.29,0.29-1.93c3.07-3.22,3.05-3.23,0.23-6.77     c-4.65-5.82-9.28-11.64-13.92-17.46c-2.36-2.96-2.7-3.03-6.12-1.35c-0.75,0.37-1.51,1.4-2.34,0.05c-0.78-1.28,0.52-1.5,1.05-1.94     c3.61-2.96,7.28-5.86,10.96-8.73c0.45-0.35,0.85-1.35,1.72-0.4c0.73,0.79,0.42,1.27-0.2,1.96c-3.03,3.36-2.99,3.37-0.19,6.87     c4.75,5.94,9.48,11.89,14.22,17.84C171.34,229.94,172.1,230.97,173.43,230.98z"/>
			<path class="st4" d="M499.38,483.31c-0.17,0.42-0.45,1.16-0.78,1.88c-0.8,1.75-0.39,2.98,1.38,3.89     c7.67,3.93,15.31,7.9,22.95,11.89c1.41,0.74,2.57,0.56,3.61-0.61c0.58-0.65,1.17-1.29,1.68-2c0.43-0.6,0.82-0.84,1.54-0.42     c0.73,0.42,0.73,0.82,0.37,1.52c-2.35,4.48-4.66,8.98-6.98,13.48c-0.29,0.56-0.49,1.19-1.39,0.75c-0.86-0.43-0.89-0.96-0.53-1.74     c0.3-0.64,0.53-1.32,0.7-2.01c0.39-1.55,0.06-2.69-1.54-3.5c-7.68-3.9-15.33-7.88-22.96-11.88c-1.55-0.81-2.73-0.45-3.76,0.81     c-0.55,0.67-1.1,1.35-1.59,2.08c-0.45,0.67-0.87,0.4-1.41,0.16c-0.69-0.31-0.7-0.69-0.38-1.31c2.41-4.63,4.8-9.27,7.18-13.91     c0.31-0.6,0.72-0.84,1.32-0.44C499.16,482.21,499.74,482.34,499.38,483.31z"/>
			<path class="st4" d="M520.42,278.79c-0.24-0.92-0.49-2.07-0.84-3.2c-0.25-0.82-0.08-1.33,0.73-1.69     c0.95-0.42,1.05,0.34,1.33,0.86c2.34,4.39,4.68,8.77,7,13.18c0.25,0.48,0.88,1-0.09,1.55c-0.79,0.44-1.25,0.42-1.73-0.37     c-0.41-0.67-0.95-1.26-1.42-1.9c-0.95-1.3-2.08-1.51-3.51-0.75c-7.66,4.09-15.32,8.18-23.01,12.22c-2.39,1.25-1.62,3.07-1.08,4.9     c0.24,0.82,1.16,1.77-0.26,2.35c-1.48,0.6-1.44-0.87-1.82-1.55c-2.21-4.01-4.34-8.07-6.49-12.11c-0.35-0.66-1.02-1.29,0.11-1.95     c1.11-0.65,1.32,0.2,1.75,0.82c2.37,3.48,2.54,3.52,6.25,1.54c7.04-3.75,14.06-7.51,21.11-11.24     C519.47,280.91,520.38,280.35,520.42,278.79z"/>
			<path class="st4" d="M553.39,390.67c0,2.3,0.01,4.6,0,6.9c0,0.71,0.44,1.6-0.92,1.71c-1.22,0.09-0.94-0.75-1.08-1.37     c-0.95-4.27-0.95-4.33-5.42-4.26c-7.84,0.12-15.68,0.35-23.52,0.44c-2.07,0.02-3.06,0.96-3.36,2.88c-0.11,0.7-0.29,1.4-0.33,2.11     c-0.05,0.98-0.76,0.85-1.35,0.89c-0.71,0.04-0.67-0.49-0.69-0.97c-0.14-5.07-0.28-10.13-0.43-15.2c-0.02-0.79,0.05-1.4,1.09-1.41     c1.05-0.01,1.11,0.65,1.16,1.4c0.03,0.55,0.03,1.11,0.12,1.66c0.27,1.7,1.1,2.68,3.01,2.63c8.63-0.22,17.26-0.4,25.89-0.52     c1.64-0.02,2.51-0.75,2.91-2.21c0.21-0.76,0.46-1.54,0.49-2.32c0.03-1.04,0.49-1.42,1.45-1.35c1.14,0.09,0.81,0.99,0.82,1.62     c0.03,2.46,0.01,4.91,0.01,7.37C553.29,390.67,553.34,390.67,553.39,390.67z"/>
			<path class="st4" d="M396.97,620.51c0.78-0.11,1.6-0.12,2.34-0.36c0.86-0.28,1.07,0.13,1.36,0.8c0.34,0.79-0.15,1.03-0.66,1.21     c-4.84,1.7-9.69,3.36-14.52,5.07c-0.64,0.23-0.96,0.22-1.22-0.52c-0.26-0.74-0.14-1.08,0.52-1.5c4.1-2.56,4.09-2.57,2.48-7.17     c-2.37-6.77-4.74-13.55-7.12-20.32c-1.11-3.16-1.62-3.43-4.85-2.98c-0.82,0.11-1.91,1.01-2.37-0.5     c-0.52-1.74,1.13-1.46,1.88-1.74c4.06-1.52,8.16-2.94,12.28-4.3c0.63-0.21,1.48-1.2,2.16,0.18c0.7,1.42-0.52,1.37-1.17,1.73     c-3.32,1.81-3.5,2.22-2.26,5.77c2.56,7.37,5.15,14.74,7.71,22.12C394.11,619.65,394.96,620.84,396.97,620.51z"/>
			<path class="st4" d="M203.68,579.08c-0.39,0.53-0.39,1.65-1.6,1.09c-0.5-0.23-1.01-0.44-1.51-0.68c-2.1-1-3.47-0.46-4.63,1.64     c-3.88,6.98-7.91,13.88-11.88,20.81c-1.49,2.6-1.36,3.22,0.98,5.22c0.3,0.26,0.59,0.54,0.92,0.75c0.6,0.4,0.89,0.76,0.42,1.53     c-0.47,0.77-0.9,0.67-1.54,0.3c-4.32-2.49-8.64-4.97-12.96-7.45c-0.55-0.31-1.19-0.53-0.67-1.41c0.38-0.65,0.73-0.8,1.5-0.56     c4.6,1.43,4.61,1.4,7.06-2.88c3.58-6.25,7.06-12.55,10.79-18.71c1.36-2.25,1.07-3.79-0.87-5.29c-0.44-0.34-0.82-0.75-1.25-1.09     c-0.62-0.49-0.3-0.95-0.02-1.45c0.28-0.5,0.58-0.67,1.13-0.35c4.52,2.61,9.05,5.21,13.57,7.81     C203.39,578.52,203.71,578.63,203.68,579.08z"/>
			<path class="st4" d="M58.6,397.63c0-2.46-0.02-4.91,0.01-7.37c0.01-0.55-0.3-1.3,0.77-1.37c0.94-0.06,1.25,0.31,1.31,1.19     c0.05,0.78,0.21,1.57,0.4,2.34c0.34,1.37,1.16,2.22,2.68,2.2c8.87-0.11,17.73-0.21,26.6-0.34c1.99-0.03,2.2-1.56,2.68-3.05     c0.3-0.93-0.53-2.83,1.38-2.68c1.92,0.15,0.87,1.89,0.91,2.84c0.2,4.27,0.21,8.55,0.24,12.82c0.01,0.75,0.47,1.82-1.05,1.87     c-1.5,0.05-1.09-1.02-1.16-1.78c-0.31-3.39-0.89-3.98-4.23-3.94c-7.84,0.09-15.68,0.22-23.52,0.31     c-3.57,0.04-3.97,0.34-4.65,3.88c-0.16,0.86,0.17,2.08-1.38,1.93c-1.63-0.16-0.88-1.44-0.91-2.2c-0.11-2.21-0.04-4.44-0.04-6.65     C58.64,397.63,58.62,397.63,58.6,397.63z"/>
			<path class="st6" d="M126.47,535.82c-0.02,3.73-2.94,6.7-6.58,6.68c-4.11-0.02-7.33-3.33-7.25-7.47     c0.07-3.79,2.97-6.67,6.63-6.58C123.2,528.54,126.49,531.91,126.47,535.82z"/>
			<path class="st6" d="M499.17,536.65c-0.05,4.02-3.25,7.13-7.31,7.11c-3.78-0.02-6.51-2.81-6.5-6.64c0.01-4.09,3.31-7.3,7.45-7.25     C496.56,529.92,499.22,532.75,499.17,536.65z"/>
			<path class="st6" d="M285.12,334.56c10.71,0.3,20.77-8.13,23.03-19.25c0.6-2.95,0.58-5.92,0.5-9.02     c7.8,7.21,13.41,23.53,13.78,39.82c-1.05,6.78-2.2,13.54-0.98,20.44c1.38,7.8,5.79,12.88,12.38,14.07     c2.15,0.39,4.23-0.23,6.35-0.34c-7.28,5.25-15.5,8.3-24.29,9.5c-19.62,2.68-36.94-2.55-51.36-16.24     c-10.79-10.25-16.89-22.97-18.39-37.84c-1.2-11.88,0.57-23.06,7.58-33.03c4.21-5.99,9.54-11.02,14.26-16.58     c7.02-8.28,11.61-17.69,13.54-28.39c0.02-0.12,0.18-0.21,0.28-0.31c0.39,0.32,0.59,0.74,0.59,1.24c0.04,0.95,0.02,1.9,0.14,2.84     c0.65,5.13,0.52,10.24-0.4,15.33c-1.39,7.65-4.78,14.47-8.59,21.13c-2.31,4.04-4.6,8.07-6.13,12.51     C263.87,320.71,272.07,335.25,285.12,334.56z"/>
			<path class="st6" d="M358.23,361.07c0.03-0.22,0.12-0.38,0.38-0.29C358.48,360.88,358.36,360.97,358.23,361.07z"/>
		</g>
	</g>
</g>
<g id="Layer_2">
	<g>
		<g>
			<path class="st7" d="M78.38,391.32c0.4,5.14-1.19,9.74-3.71,14.12c-1.06,1.84-2.02,3.75-2.83,5.7     c-1.87,4.52,2.23,11.49,7.26,11.06c-1.5-2.96-2.22-6.74-1.47-9.75c0.58-2.37,1.91-4.67,2.44-7.05     c1.14-5.14,0.68-10.14-1.61-15.49C78.4,390.75,78.36,391.04,78.38,391.32z"/>
			<path class="st7" d="M87.49,369.93c-5.13-1.05-10.5-1.75-16.11-2.03l0,3.69c5.32,0.42,10.54,0.82,15.81,1.23     C87.28,371.87,87.38,370.9,87.49,369.93z"/>
			<path class="st7" d="M71.32,466.87c16.1,0,32.23,0,48.51,0c0-2.49,0-4.62,0-7.01c-16.17,0-32.3,0-48.53,0L71.32,466.87z      M71.34,491.81c0.78,0,1.52,0,2.26,0c10.51,0,21.02,0,31.53,0c7.18,0,10.5-4.82,8.01-11.64c-0.34-0.93-0.83-1.83-1.32-2.69     c-1.92-3.35-1.93-3.34-1.57-7.08c-12.95,0-25.88,0-38.93,0L71.34,491.81z M71.33,501.66c13.32,0,26.68,0,40.14,0     c0-2.3,0-4.34,0-6.58c-13.37,0-26.67,0-40.12,0L71.33,501.66z M71.3,456.97c17.75,0,35.51,0,53.38,0c0-2.31,0-4.35,0-6.63     c-17.71,0-35.44,0-53.4,0L71.3,456.97z M71.2,528.19c48.13-2.77,80.83-34.8,80.83-79.88c0-38.59-23.29-68.24-60.66-77.5     c0.29,0.74,0.58,1.48,0.9,2.21c0.34,0.78,1.27,1.57,2.09,1.82c12.13,3.72,22.78,9.95,31.71,18.93     c11.39,11.45,18.63,25.14,21.08,41.15c3.32,21.73-1.55,41.46-15.04,58.93c-6.46,8.37-14.47,14.96-23.79,19.96     c-0.43,0.23-0.89,0.4-1.63,0.72c0-3.23,0-6.25,0-9.48c-11.91,0-23.57,0-35.36,0l-0.02,5.32c2.45-0.58,3.66,0.27,3.7,2.65     c0.04,3.13,0.01,6.25,0.01,9.57c-1.38,0-2.49,0-3.71,0L71.2,528.19z M84.43,521.81c-1.93,0.2-3.7,0.39-5.67,0.6     c0-3.52-0.1-6.82,0.04-10.11c0.06-1.51,1.16-2.21,2.73-2.24c1.66-0.03,2.78,0.73,2.86,2.31     C84.53,515.47,84.43,518.59,84.43,521.81z M91,520.43c-0.84,0.23-1.69,0.41-2.81,0.68c0-2.89-0.05-5.57,0.02-8.25     c0.05-1.89,1.13-2.83,3-2.78c1.78,0.04,2.64,0.94,2.68,2.86c0.03,1.25,0.02,2.5,0,3.75C93.84,520.31,94.41,519.51,91,520.43z      M100.38,517.44c-0.81,0.32-1.63,0.61-2.74,1.03c0-2.09-0.06-3.91,0.02-5.73c0.07-1.82,1.1-2.69,2.93-2.67     c1.73,0.02,2.64,0.9,2.76,2.64C103.57,516.19,103.57,516.19,100.38,517.44z"/>
			<path class="st7" d="M105.64,411.21c-0.47,6.92-2.85,12.19-8.51,15.65c-0.25,0.15-1.67-0.15-1.72,0.11     c-0.77,3.9-1.34,7.81,0.77,11.51c1.13,1.97,2.86,2.83,5.14,2.84c2.37,0.01,3.71-1.63,5.23-2.97c3.79-3.35,5.85-7.53,5.32-12.62     C111.28,420.07,109.17,415.99,105.64,411.21z"/>
			<path class="st8" d="M89.31,365.12c-0.25-0.7-0.44-1.42-0.66-2.14c-0.14,0.02-0.29,0.05-0.43,0.07c-0.24,2.3-0.49,4.6-0.73,6.87     c1.31,0.27,2.61,0.56,3.88,0.88C90.65,368.93,90,367.02,89.31,365.12z"/>
		</g>
		<path class="st6" d="M105.12,410.51c-3.18-4.17-6.36-8.33-9.43-12.58c-3.22-4.47-6.04-9.11-7.31-14.53    c-0.84-3.58-1.04-7.19-0.96-10.84c0.01-0.36,0.13-0.76-0.2-1.06c-0.04-3.31,0.61-6.55,1.06-9.81c0.03-0.22,0.05-0.42,0.34-0.39    c0.33,0.03,0.45,0.24,0.49,0.55c0.37,3.04,1.44,5.89,2.54,8.72c0.12,0.31,0.26,0.61,0.39,0.92c-0.4,0.42-0.02,0.76,0.15,1.1    c2.35,4.93,5.54,9.34,8.78,13.72c3.44,4.65,6.94,9.27,9.63,14.41c3.23,6.17,4.92,12.69,4.72,19.64c-0.12,4.11-1.2,7.98-3.23,11.59    c-0.11,0.2-0.13,0.55-0.51,0.47c0.02-0.17,0.02-0.34,0.08-0.5c1.29-3.47,1.09-6.93-0.1-10.36    C110.16,417.48,107.7,413.96,105.12,410.51z"/>
		<path class="st6" d="M79.25,421.57c5.18,0.11,9.89-4.24,10.26-9.51c0.06-0.84,0.01-1.7,0.01-2.59c2.44,2.47,6.72,9.58,6.06,17.06    c-0.46,2.91-0.96,5.82-0.43,8.79c0.61,3.35,2.55,5.54,5.44,6.04c0.94,0.16,1.86-0.1,2.78-0.15c-3.13,2.21-6.67,3.45-10.43,4.07    c-12.68,2.07-25.21-5.22-29.42-17.14c-1.8-5.11-2.13-10.31-0.47-15.53c1.08-3.41,3.34-6.08,5.77-8.63    c3.02-3.17,5.89-6.44,7.47-10.59c0.59-1.56,1.08-3.16,1.38-4.8c0-0.03,0.04-0.07,0.05-0.07c0.06,0.02,0.11,0.05,0.16,0.07    c0.04,0.12-0.05,0.31,0.17,0.33l-0.01-0.03c0.01,0.34-0.02,0.68,0.02,1.02c0.74,5.03-0.4,9.68-2.85,14.09    c-1.32,2.38-2.83,4.65-3.74,7.24C69.95,415.62,73.53,421.86,79.25,421.57z"/>
		<path class="st9" d="M103.38,441.2c-0.93,0.05-1.84,0.32-2.78,0.15c-2.89-0.5-4.83-2.69-5.44-6.04c-0.54-2.97-0.03-5.87,0.43-8.79    c4.92-2.48,7.6-6.6,8.96-11.7c0.38-1.42,0.33-2.88,0.57-4.31c2.58,3.45,5.04,6.97,6.46,11.06c1.18,3.43,1.39,6.89,0.1,10.36    c-0.06,0.15-0.05,0.33-0.08,0.5c0,0,0.03-0.01,0.03-0.01c-0.25,0.05-0.19,0.25-0.23,0.41c0,0,0.04-0.01,0.04-0.01    c-0.05,0.03-0.1,0.06-0.16,0.1c-0.73,2.02-2.24,3.49-3.7,4.98C106.33,439.17,104.97,440.34,103.38,441.2z"/>
		<path class="st9" d="M79.25,421.57c-5.72,0.3-9.3-5.95-7.76-10.34c0.91-2.59,2.43-4.86,3.74-7.24c2.45-4.42,3.59-9.07,2.85-14.09    c-0.05-0.33-0.02-0.68-0.02-1.02c2.67,5.62,3.32,11.44,1.79,17.48c-0.55,2.17-1.06,4.36-1.62,6.53    C77.44,415.91,77.71,418.81,79.25,421.57z"/>
		<g>
			<path class="st4" d="M264.2,421.23c2.95-2.93,6.19-5.07,10.15-5.83c6.95-1.33,12.75,0.83,17.6,5.91     c8.84,9.26,10.55,31.73-5.63,41.47c-7.41,4.46-14.94,3.45-22.42,0.1c-3.08-1.38-3.06-1.44-4.91,1.5     c-0.89,1.42-1.6,3.01-3.83,2.02c-0.72-0.32-0.91-0.61-0.89-1.36c0.8-21.1,0.23-42.2,0.4-63.3c0.01-0.75,0-1.51-0.08-2.26     c-0.33-3.29-2.09-5.14-5.32-5.66c-0.75-0.12-1.5-0.3-2.25-0.29c-1.28,0.02-1.66-0.48-1.62-1.78c0.04-1.22,0.21-1.71,1.61-1.76     c4.91-0.18,9.82-0.48,14.72-0.86c1.7-0.13,2.19,0.43,2.18,2.08c-0.06,9.26-0.03,18.52-0.02,27.79     C263.9,419.67,263.71,420.37,264.2,421.23z M288.24,440.52c-0.14-3.39-0.51-7.26-1.91-10.94c-4.17-10.95-15.28-11.01-21.22-5.39     c-0.82,0.78-1.26,1.55-1.25,2.75c0.06,8.31,0.04,16.61,0.02,24.92c0,1.23,0.25,2.35,0.82,3.43c2.06,3.88,5.14,6.32,9.64,6.57     c4.81,0.26,8.12-2.17,10.47-6.13C287.49,451.2,288.05,446.16,288.24,440.52z"/>
			<path class="st4" d="M188.79,464.24c-8.33,0-16.66,0.01-24.99-0.02c-0.81,0-2.01,0.52-1.95-1.18c0.05-1.33-0.27-2.72,1.85-2.61     c0.93,0.05,1.88-0.15,2.81-0.32c3.43-0.65,4.58-2.01,4.61-5.53c0.04-3.97,0.01-7.94,0.01-11.91c0-11.91,0-23.82,0-35.72     c0-4.72-0.85-5.85-5.46-7.22c-0.84-0.25-1.69-0.54-2.56-0.62c-0.99-0.09-1.23-0.53-1.25-1.46c-0.05-2.34-0.09-2.34,2.27-2.34     c8.46,0,16.91,0,25.37,0c0.85,0,1.9-0.26,1.67,1.22c-0.16,1.03,0.64,2.54-1.45,2.55c-1.06,0.01-2.12,0.27-3.16,0.5     c-3.99,0.89-5.01,2.16-5.01,6.26c-0.01,10.46-0.04,20.92,0.01,31.38c0.03,5.85-0.25,11.71,0.2,17.56     c0.28,3.62,1.5,4.85,5.11,5.25c4.85,0.53,9.68,0.46,14.49-0.43c2.26-0.42,4.05-1.48,5.39-3.44c2.46-3.59,4.67-7.31,6.49-11.25     c0.45-0.97,2.94-1.72,3.81-1.13c0.4,0.27,0.25,0.67,0.23,1.02c-0.45,6.08-0.96,12.17-1.32,18.25c-0.09,1.5-0.99,1.16-1.8,1.16     C205.7,464.24,197.25,464.24,188.79,464.24z"/>
			<path class="st4" d="M374.45,458.36c-3.96,4.28-8.51,6.77-14.29,7.14c-5.85,0.38-11.14-2.56-12.95-7.7     c-2-5.7,0.1-12.25,4.89-15.38c3.2-2.09,6.84-3.13,10.41-4.35c3.56-1.22,7.14-2.39,10.63-3.82c1.01-0.42,1.43-0.94,1.41-2.09     c-0.06-2.39-0.03-4.79-0.7-7.11c-1.8-6.2-9.57-8.64-14.61-4.66c-0.86,0.68-0.6,1.46-0.46,2.22c0.27,1.42,0.7,2.8,0.69,4.27     c-0.03,2.66-1.58,4.35-4.53,4.86c-2.89,0.5-4.77-0.51-5.67-3.1c-0.88-2.53-0.4-4.85,1.29-6.89c3.56-4.28,8.38-6.09,13.72-6.68     c2.88-0.32,5.8-0.1,8.67,0.42c6.51,1.16,10.46,5.97,10.7,13.14c0.29,8.56-0.21,17.12-0.24,25.68c-0.01,2.37,0.6,4.36,2.96,5.42     c1.13,0.51,2.37,0.24,3.54,0.43c0.62,0.1,1.74-0.56,1.72,0.74c-0.02,1.1,0.7,2.51-1.27,3c-1.82,0.45-3.58,1.21-5.47,1.36     C379.44,465.65,376.85,463.95,374.45,458.36z M374.27,437.94c-4.48,1.32-9,2.63-12.91,5.39c-3.37,2.37-5.17,5.58-4.92,9.79     c0.21,3.57,2.01,5.83,5.3,6.67c4.12,1.05,9.9-1.34,12.25-5.02c0.27-0.42,0.28-0.81,0.28-1.24     C374.28,448.38,374.27,443.23,374.27,437.94z"/>
			<path class="st4" d="M491.69,438.81c-4.79,0-9.59-0.01-14.38,0.01c-0.55,0-1.34-0.31-1.32,0.79c0.1,6.02,1.04,11.73,5.34,16.43     c4.59,5.01,16.11,6.22,21.35-1.31c0.54-0.77,1.23-1.49,1.58-2.34c0.68-1.66,1.45-1.44,2.8-0.66c1.58,0.91,1.67,1.59,0.7,3.12     c-5.39,8.42-14.15,12.22-23.91,10.2c-9.33-1.93-15.61-8.76-17.18-18.7c-1.37-8.68-0.25-16.81,5.41-23.89     c7.29-9.11,22.52-10.22,30.3-2.22c3.66,3.77,4.95,8.52,5.15,13.6c0.06,1.61,0.73,3.75-0.31,4.69c-0.88,0.79-2.99,0.26-4.55,0.27     C499.01,438.82,495.35,438.81,491.69,438.81z M486.99,434.65c3.15,0,6.3-0.03,9.44,0.02c0.98,0.02,1.49-0.14,1.42-1.3     c-0.15-2.64-0.38-5.25-1.2-7.78c-2.23-6.9-9.6-9.07-15.22-4.44c-3.59,2.95-4.82,7.03-5.38,11.44c-0.2,1.58,0.06,2.21,1.87,2.11     C480.94,434.52,483.97,434.65,486.99,434.65z"/>
			<path class="st4" d="M519.47,461.43c-0.2,0.54-0.37,0.95-0.5,1.37c-0.44,1.35-2.61,2.24-3.85,1.57     c-0.56-0.31-0.42-0.89-0.44-1.35c-0.15-4.59-0.29-9.18-0.38-13.77c-0.01-0.58-0.41-1.64,0.72-1.56c1.03,0.07,2.44-0.82,2.98,1     c0.89,2.99,2.36,5.69,4.46,8.01c3.93,4.35,8.77,5.96,14.5,4.43c3.01-0.8,4.9-2.81,5.39-5.9c0.51-3.23-0.37-5.98-3.28-7.85     c-2.73-1.76-5.82-2.64-8.87-3.62c-2.52-0.8-5-1.69-7.32-2.98c-5.62-3.14-8.19-8.07-7.3-13.89c0.88-5.67,5.61-10.37,11.56-11.51     c4.65-0.89,9.16-0.36,13.53,1.35c1.03,0.4,1.65,0.6,2.08-0.71c0.65-1.97,2.37-0.93,3.56-0.96c1.15-0.03,0.54,1.2,0.59,1.82     c0.27,3.95,0.45,7.91,0.62,11.86c0.03,0.65,0.51,1.79-0.77,1.64c-0.98-0.11-2.41,0.96-2.91-1.01c-0.84-3.3-2.43-6.21-5.25-8.27     c-3.4-2.47-7.14-3.03-11.09-1.59c-2.42,0.88-4.04,2.63-4.38,5.22c-0.36,2.81,0.49,5.25,2.99,6.87c2.83,1.84,6.08,2.68,9.23,3.76     c2.32,0.8,4.62,1.64,6.79,2.79c4.62,2.45,7.72,5.88,7.88,11.48c0.18,6.2-2.41,10.8-7.83,13.54c-7.09,3.59-14.21,3.14-21.11-0.77     C520.58,462.14,520.11,461.82,519.47,461.43z"/>
			<path class="st4" d="M412.49,423.23c2.79-3.47,5.76-5.93,9.53-7.29c1.49-0.54,3.03-0.93,4.62-0.79c2.72,0.23,4.88,1.5,5.82,4.12     c1.02,2.85,0.93,5.72-1.03,8.23c-1.18,1.51-3.65,1.88-5.95,1.05c-1.84-0.66-3.09-2.35-3.1-4.3c0-0.75,0.09-1.51,0.25-2.24     c0.2-0.99,0.1-1.39-1.1-1.08c-3.8,0.99-6.59,3.27-8.78,6.42c-0.37,0.53-0.26,1.08-0.26,1.63c-0.01,8.82-0.01,17.64,0,26.46     c0,2.68,0.93,3.88,3.5,4.65c1.46,0.43,2.95,0.67,4.47,0.69c1.81,0.03,0.94,1.4,1.11,2.22c0.21,0.98-0.23,1.27-1.23,1.27     c-7.57-0.04-15.14-0.04-22.71,0c-1.03,0-1.56-0.22-1.39-1.34c0.14-0.88-0.51-2.19,1.24-2.14c0.44,0.01,0.88-0.01,1.32-0.06     c3.21-0.34,4.49-1.69,4.5-4.9c0.02-9.57,0.02-19.15,0-28.73c-0.01-3.98-1.96-6.35-5.89-6.71c-1.7-0.16-1.59-0.92-1.72-2.13     c-0.17-1.61,0.86-1.52,1.83-1.59c4.4-0.31,8.8-0.57,13.2-0.9c1.31-0.1,1.84,0.38,1.79,1.71     C412.44,419.22,412.49,420.97,412.49,423.23z"/>
			<path class="st4" d="M321.59,423.29c2.87-3.45,5.78-6,9.59-7.34c1.5-0.53,3.03-0.92,4.61-0.79c2.72,0.22,4.84,1.47,5.83,4.1     c1.08,2.87,0.9,5.71-0.99,8.23c-1.21,1.61-4.01,1.95-6.29,0.94c-1.9-0.84-3-2.77-2.8-4.89c0.3-3.13,0.09-3.28-2.81-1.96     c-1.26,0.57-2.48,1.25-3.54,2.15c-2.33,1.96-3.83,4.09-3.7,7.53c0.3,7.74,0.09,15.49,0.1,23.24c0,4.06,1.1,5.31,5.2,5.95     c0.87,0.14,1.75,0.33,2.62,0.32c1.08-0.01,1.32,0.43,1.41,1.46c0.14,1.64-0.34,2.1-2.04,2.07c-7.25-0.11-14.51-0.06-21.76-0.03     c-0.99,0-1.76,0-1.61-1.35c0.11-1.03-0.28-2.07,1.48-2.17c4.67-0.26,5.61-1.37,5.61-6.09c0-8.94,0-17.89,0-26.83     c0-4.84-1.7-6.89-6.52-7.5c-1.38-0.18-1.08-0.98-1.03-1.7c0.05-0.73-0.56-1.78,1.02-1.86c4.65-0.25,9.3-0.61,13.95-0.97     c1.23-0.09,1.73,0.38,1.69,1.61C321.55,419.18,321.59,420.99,321.59,423.29z"/>
			<path class="st4" d="M237,436.91c0,5.79,0,11.59,0,17.38c0,4.37,1.06,5.83,5.42,6.37c2.18,0.27,1.43,1.59,1.51,2.66     c0.11,1.51-1.1,0.88-1.74,0.89c-6.62,0.05-13.24,0.02-19.86,0.04c-0.94,0-1.75,0.08-1.6-1.31c0.12-1.1-0.28-2.17,1.61-2.22     c4.31-0.11,5.37-1.35,5.37-5.67c0-8.88-0.16-17.76,0.06-26.63c0.15-5.98-2.59-7.51-6.85-8.01c-1.86-0.22-1.57-1.15-1.7-2.34     c-0.18-1.64,1.01-1.32,1.82-1.38c4.65-0.34,9.3-0.58,13.95-0.93c1.64-0.12,2.07,0.57,2.06,2.08     C236.97,424.19,237,430.55,237,436.91z"/>
			<path class="st4" d="M453.36,436.87c0,5.79,0.11,11.59-0.03,17.38c-0.13,4.98,1.65,5.67,5.44,6.38c1.92,0.36,1.46,1.39,1.55,2.5     c0.13,1.59-1.04,1.09-1.78,1.09c-6.62,0.03-13.25,0.01-19.87,0.03c-0.96,0-1.74,0.05-1.58-1.33c0.13-1.08-0.32-2.17,1.59-2.21     c4.31-0.09,5.38-1.34,5.38-5.65c0-8.88-0.17-17.77,0.06-26.64c0.15-6.12-2.69-7.32-6.83-8.11c-0.55-0.11-1.44,0.32-1.61-0.53     c-0.17-0.85-0.1-1.76-0.02-2.63c0.05-0.49,0.59-0.34,0.94-0.36c5.02-0.34,10.05-0.65,15.07-1.02c1.58-0.11,1.71,0.81,1.71,2.02     C453.35,424.14,453.36,430.5,453.36,436.87z"/>
			<path class="st4" d="M225.38,397.27c0.02-3.71,2.81-6.63,6.28-6.58c3.59,0.05,6.24,2.77,6.22,6.39c-0.02,3.73-2.89,6.87-6.31,6.9     C228.22,404,225.36,400.9,225.38,397.27z"/>
			<path class="st4" d="M454.24,397.17c-0.09,3.79-3.03,6.89-6.45,6.8c-3.39-0.09-6.21-3.28-6.1-6.89c0.11-3.54,3.03-6.46,6.39-6.38     C451.7,390.77,454.33,393.54,454.24,397.17z"/>
			<path class="st4" d="M386.67,481.28c0,2.8,0,5.6,0,8.4c0,1.83,0.01,3.65-0.01,5.48c0,0.52,0.22,1.21-0.68,1.26     c-0.94,0.05-0.73-0.64-0.75-1.17c-0.01-0.31,0-0.63,0-0.94c0-4.53-0.05-9.07,0.05-13.6c0.02-0.83-0.84-2.14,0.65-2.53     c1.59-0.41,1.57,1.09,1.94,1.97c1.81,4.2,3.55,8.42,5.35,12.62c0.24,0.56,0.31,1.24,0.98,1.67c2.07-4.98,4.13-9.94,6.19-14.9     c0.31-0.75,0.51-1.63,1.65-1.39c1.24,0.25,0.59,1.24,0.6,1.82c0.06,5.04,0.05,10.07,0.02,15.11c0,0.47,0.39,1.28-0.54,1.32     c-0.97,0.03-0.59-0.8-0.59-1.27c-0.03-4.78-0.02-9.57-0.27-14.45c-0.78,1.85-1.57,3.69-2.35,5.54c-1.25,3.01-2.5,6.01-3.73,9.03     c-0.24,0.59-0.34,1.21-1.21,1.18c-0.81-0.02-0.83-0.7-1.03-1.17c-1.81-4.26-3.58-8.54-5.37-12.81c-0.18-0.42-0.37-0.84-0.55-1.26     C386.89,481.23,386.78,481.25,386.67,481.28z"/>
			<path class="st4" d="M185.76,480.76c0,2.35,0,4.71,0,7.06c0,2.39,0.02,4.79-0.02,7.18c-0.01,0.53,0.38,1.42-0.69,1.4     c-0.96-0.01-0.57-0.82-0.57-1.28c-0.03-5.23-0.03-10.46,0-15.69c0-0.43-0.33-1.08,0.4-1.26c0.65-0.16,1.19,0,1.6,0.65     c0.95,1.48,1.98,2.91,2.98,4.35c2.53,3.65,5.05,7.3,7.88,11.38c0-4.87,0-9.24,0-13.61c0-0.57-0.03-1.14,0.01-1.7     c0.04-0.43-0.27-1.08,0.58-1.11c0.8-0.02,0.69,0.56,0.7,1.04c0.01,1.07,0.01,2.14,0.01,3.21c0,4.03,0.03,8.06-0.03,12.1     c-0.01,0.63,0.6,1.62-0.55,1.91c-1.03,0.26-1.39-0.63-1.84-1.29c-3-4.35-6-8.7-9-13.04c-0.33-0.48-0.7-0.95-1.05-1.42     C186.02,480.69,185.89,480.73,185.76,480.76z"/>
			<path class="st4" d="M257.17,487.57c2.39,1,2.79,2.82,2.71,4.89c-0.04,0.94-0.02,1.88,0.23,2.81c0.1,0.38,0.6,1.02-0.32,1.15     c-0.71,0.1-1.05-0.29-1.08-0.98c-0.04-0.94-0.12-1.88-0.13-2.82c-0.07-3.3-1.04-4.3-4.28-4.33c-1.58-0.01-3.16,0.06-4.73-0.02     c-1.11-0.06-1.58,0.19-1.5,1.42c0.12,1.82,0.05,3.65,0.02,5.47c-0.01,0.49,0.31,1.23-0.64,1.27c-0.88,0.04-0.79-0.59-0.79-1.16     c0-5.29,0-10.57,0-15.86c0-0.65-0.05-1.28,0.92-1.26c2.71,0.05,5.43-0.11,8.12,0.12c2.66,0.23,4.1,1.58,4.48,3.61     C260.6,484.14,259.68,486.03,257.17,487.57z M248.11,483.16c0,1.01,0.02,2.02-0.01,3.02c-0.02,0.63,0.2,0.91,0.86,0.88     c2.33-0.09,4.67,0.23,6.98-0.24c1.86-0.38,2.82-1.66,2.84-3.66c0.02-1.98-0.77-3-2.65-3.56c-1.36-0.41-2.75-0.31-4.13-0.31     C248.1,479.28,248.1,479.29,248.11,483.16z"/>
			<path class="st4" d="M336.22,487.66c-0.35-6.86,5.21-11.48,11.48-9.51c1.6,0.5,2.93,1.41,3.94,2.78c2.57,3.48,2.58,9.45,0,12.74     c-2.16,2.76-5.88,3.88-9.36,2.82C338.58,495.36,336.46,492.27,336.22,487.66z M344.78,495.6c4.35,0.04,7.43-3.32,7.48-8.14     c0.05-4.91-3.06-8.52-7.34-8.55c-4.2-0.02-7.36,3.53-7.42,8.31C337.46,492.02,340.54,495.56,344.78,495.6z"/>
			<path class="st4" d="M441.71,477.77c3.54,0,5.94,1.48,6.63,4.16c0.14,0.53,0.6,1.33-0.28,1.6c-0.96,0.3-0.91-0.64-1.04-1.18     c-0.54-2.17-2.2-2.97-4.13-3.32c-2-0.36-3.94-0.11-5.39,1.49c-1.52,1.68-0.94,3.91,1.26,4.93c1.78,0.82,3.75,0.97,5.64,1.43     c2.87,0.7,4.31,2.03,4.55,4.12c0.27,2.32-0.63,4.13-2.77,5.06c-2.81,1.22-5.68,1.08-8.4-0.25c-1.82-0.89-2.72-2.55-2.91-4.56     c-0.04-0.41-0.13-0.92,0.54-0.99c0.62-0.07,0.69,0.36,0.82,0.8c1.24,4.03,5.13,5.8,9.01,4.08c1.5-0.67,2.43-1.78,2.45-3.48     c0.02-1.71-1.1-2.61-2.53-3.17c-2.34-0.91-4.93-0.93-7.24-1.98c-1.59-0.72-2.51-1.96-2.57-3.64c-0.06-1.64,0.57-3.08,2.05-4     C438.71,478.04,440.15,477.68,441.71,477.77z"/>
			<path class="st4" d="M423.25,496.82c-4.56-0.2-7.06-2.03-7.36-5.18c-0.05-0.48-0.52-1.2,0.4-1.38c0.97-0.2,0.7,0.6,0.79,1.09     c0.41,2.24,1.81,3.59,3.97,4.01c2.38,0.46,4.82,0.62,6.69-1.4c1.57-1.7,0.94-4.24-1.25-5.29c-1.72-0.82-3.64-0.92-5.44-1.45     c-0.84-0.24-1.71-0.45-2.48-0.85c-2.35-1.22-3.1-3.9-1.63-6.1c1.76-2.63,4.51-2.75,7.26-2.41c2.8,0.35,4.53,1.93,5.08,4.32     c0.11,0.48,0.64,1.15-0.31,1.35c-0.77,0.16-0.85-0.39-0.99-1.02c-0.45-2.01-1.87-2.99-3.81-3.41c-2.09-0.44-4.06-0.28-5.63,1.26     c-1.72,1.69-0.97,4.31,1.47,5.25c2.28,0.88,4.8,0.91,7.07,1.89c1.57,0.68,2.61,1.74,2.81,3.46c0.22,1.89-0.39,3.45-1.99,4.58     c-0.79,0.56-1.65,0.93-2.59,1.07C424.51,496.77,423.69,496.79,423.25,496.82z"/>
			<path class="st4" d="M273.07,496.81c-4.5-0.02-6.96-1.63-7.67-4.84c-0.14-0.63-0.59-1.48,0.42-1.68c1.02-0.2,0.75,0.77,0.84,1.31     c0.23,1.49,1.08,2.55,2.38,3.19c2.13,1.06,4.38,1.15,6.58,0.3c1.51-0.58,2.43-1.7,2.43-3.46c0-1.75-1.08-2.69-2.5-3.15     c-2.08-0.67-4.27-1.01-6.37-1.66c-2.7-0.84-3.7-2.53-3.3-5.11c0.2-1.27,0.84-2.25,1.93-2.86c2.94-1.64,5.92-1.52,8.81,0.09     c1.19,0.67,1.92,1.83,2.13,3.19c0.07,0.45,0.59,1.18-0.32,1.41c-0.91,0.23-0.82-0.57-0.93-1.05c-0.91-3.95-6.7-4.4-9.1-2.5     c-2.12,1.68-1.7,4.58,0.92,5.55c1.75,0.65,3.65,0.87,5.47,1.36c1.85,0.49,3.65,1.15,4.37,3.19c1.03,2.9-0.91,5.92-4.19,6.54     C274.23,496.77,273.47,496.78,273.07,496.81z"/>
			<path class="st4" d="M488.26,496.81c-2.15-0.05-3.89-0.28-5.39-1.33c-1.56-1.08-2.26-2.64-2.34-4.5     c-0.02-0.42,0.1-0.72,0.62-0.74c0.49-0.02,0.57,0.21,0.69,0.65c1.08,4.14,5.39,6.08,9.23,4.16c1.47-0.73,2.26-1.87,2.19-3.62     c-0.07-1.68-1.11-2.53-2.47-2.95c-2.15-0.67-4.39-1.04-6.55-1.7c-2.16-0.66-3.19-2.13-3.19-4.12c0-2.07,1.14-3.67,3.17-4.42     c0.47-0.17,0.96-0.3,1.45-0.39c4.13-0.8,7.68,1.09,8.38,4.45c0.1,0.47,0.47,1.02-0.3,1.22c-0.77,0.2-0.87-0.28-1-0.94     c-0.84-4.19-7.15-4.57-9.45-2.28c-1.78,1.77-1.02,4.41,1.54,5.36c2.29,0.85,4.82,0.85,7.07,1.9c3.39,1.59,3.8,5.71,0.81,7.96     C491.28,496.61,489.61,496.81,488.26,496.81z"/>
			<path class="st4" d="M467.92,477.76c3.73,0,6.11,1.37,6.89,3.9c0.18,0.6,0.64,1.51-0.12,1.83c-1.05,0.44-1-0.71-1.13-1.27     c-0.83-3.66-7.29-4.33-9.49-1.75c-1.43,1.68-1.02,3.84,1.01,4.87c1.82,0.92,3.86,1.05,5.81,1.53c3.73,0.92,5.27,3.02,4.49,6.12     c-0.11,0.42-0.25,0.86-0.5,1.2c-2.1,2.9-5.14,2.83-8.21,2.43c-2.69-0.35-4.55-2.07-5.12-4.59c-0.13-0.59-0.66-1.47,0.3-1.73     c1.14-0.31,0.89,0.73,0.97,1.35c0.16,1.21,0.77,2.15,1.76,2.77c2.41,1.52,4.99,1.65,7.56,0.48c1.33-0.6,2.12-1.74,2.08-3.32     c-0.04-1.63-1.02-2.6-2.4-3.04c-2.27-0.72-4.63-1.13-6.9-1.85c-1.81-0.58-2.96-1.85-2.98-3.91c-0.02-2.08,0.94-3.59,2.91-4.4     C465.93,477.94,467.02,477.64,467.92,477.76z"/>
			<path class="st4" d="M229.41,487.23c0-2.58,0.05-5.16-0.02-7.74c-0.03-1.06,0.3-1.4,1.38-1.37c3.28,0.07,6.55,0.02,9.83,0.03     c0.44,0,1.15-0.26,1.18,0.52c0.04,0.97-0.79,0.59-1.24,0.59c-2.84,0.04-5.67,0.07-8.51-0.01c-1.1-0.03-1.39,0.33-1.33,1.37     c0.11,1.87-0.6,4.35,0.34,5.46c0.99,1.16,3.54,0.26,5.41,0.34c1.2,0.05,2.4-0.02,3.59,0.02c0.43,0.02,1.14-0.29,1.16,0.52     c0.02,0.77-0.66,0.61-1.13,0.61c-2.65,0.01-5.3,0.08-7.94-0.02c-1.2-0.05-1.51,0.32-1.44,1.47c0.1,1.63,0.09,3.27,0,4.91     c-0.05,1.01,0.27,1.28,1.26,1.25c2.9-0.06,5.8-0.04,8.7-0.01c0.49,0,1.28-0.32,1.3,0.6c0.01,0.91-0.77,0.64-1.27,0.65     c-3.34,0.02-6.68-0.03-10.02,0.03c-1.02,0.02-1.28-0.33-1.26-1.3C229.44,492.52,229.41,489.87,229.41,487.23z"/>
			<path class="st4" d="M507.63,487.24c0-2.58,0.04-5.16-0.02-7.73c-0.03-1.07,0.3-1.43,1.39-1.39c2.2,0.07,4.41-0.02,6.61,0.03     c3.39,0.08,5.2,1.89,5.21,5.1c0.01,3.18-1.86,5.03-5.21,5.1c-1.82,0.04-3.65,0.05-5.48-0.01c-0.82-0.02-1.1,0.22-1.07,1.05     c0.06,1.88,0.04,3.77,0,5.66c-0.01,0.54,0.35,1.4-0.73,1.35c-1.04-0.05-0.67-0.89-0.68-1.43     C507.61,492.4,507.63,489.82,507.63,487.24z M509.07,483.16c0,1.07,0.03,2.13-0.01,3.2c-0.02,0.64,0.19,0.89,0.86,0.88     c2.01-0.04,4.03,0.07,6.03-0.07c2.13-0.15,3.45-1.66,3.53-3.71c0.08-2.11-1.02-3.58-3.16-3.97c-1.1-0.2-2.24-0.17-3.37-0.18     C509.07,479.28,509.07,479.29,509.07,483.16z"/>
			<path class="st4" d="M525.74,487.18c0-2.51,0.05-5.03-0.02-7.54c-0.03-1.09,0.18-1.58,1.42-1.52c2.2,0.11,4.41-0.02,6.61,0.04     c3.32,0.09,5.24,2.02,5.23,5.15c-0.01,3.09-1.99,4.98-5.32,5.06c-0.44,0.01-0.88-0.02-1.32,0.01c-1.68,0.1-3.98-0.73-4.87,0.33     c-0.85,1.01-0.25,3.23-0.29,4.91c-0.01,0.63-0.03,1.26,0,1.89c0.03,0.62-0.18,0.96-0.85,0.92c-0.66-0.03-0.6-0.5-0.6-0.94     C525.74,492.71,525.74,489.95,525.74,487.18z M527.19,483.11c0,0.88,0.07,1.77-0.02,2.64c-0.11,1.11,0.18,1.58,1.42,1.5     c1.69-0.12,3.4,0.01,5.1-0.05c2.23-0.09,3.64-1.39,3.82-3.4c0.22-2.39-0.82-3.89-3.18-4.33c-1.1-0.21-2.25-0.16-3.38-0.17     C527.19,479.28,527.19,479.29,527.19,483.11z"/>
			<path class="st4" d="M176.91,484.78c0-1.89-0.01-3.78,0-5.67c0-0.42-0.1-0.92,0.58-0.96c0.69-0.04,0.87,0.33,0.85,0.93     c-0.15,4.15,0.36,8.32-0.3,12.44c-0.6,3.75-3.29,5.59-7.62,5.28c-3.68-0.26-5.97-2.55-6.04-6.18c-0.06-3.78-0.02-7.56,0-11.34     c0-0.43-0.28-1.11,0.57-1.12c0.85-0.01,0.58,0.68,0.58,1.11c0.02,3.02-0.01,6.05,0.03,9.07c0.01,0.94,0.1,1.89,0.28,2.81     c0.66,3.38,2.57,4.69,6.29,4.42c2.88-0.22,4.63-2.13,4.75-5.3C176.96,488.43,176.9,486.61,176.91,484.78     C176.91,484.78,176.91,484.78,176.91,484.78z"/>
			<path class="st4" d="M217.78,495c1.94-5.33,3.69-10.13,5.44-14.93c0.15-0.41,0.35-0.8,0.48-1.22c0.18-0.58,0.57-0.88,1.12-0.66     c0.64,0.25,0.2,0.78,0.08,1.11c-1.11,3.06-2.26,6.1-3.4,9.14c-0.84,2.22-1.69,4.44-2.53,6.66c-0.24,0.62-0.29,1.37-1.28,1.33     c-0.88-0.04-0.91-0.72-1.12-1.28c-1.96-5.21-3.93-10.4-5.84-15.63c-0.12-0.34-0.97-1,0.03-1.35c0.86-0.3,1.07,0.45,1.27,1.02     c1.68,4.58,3.33,9.17,4.99,13.76C217.21,493.48,217.4,493.99,217.78,495z"/>
			<path class="st4" d="M307.07,478.39c1.13-0.59,1.59,0.04,2.07,0.75c1.9,2.8,3.82,5.59,5.78,8.44c1.95-2.84,3.85-5.58,5.72-8.33     c0.47-0.69,0.87-1.44,2.16-0.9c-1.43,2.07-2.7,4.21-4.28,6.09c-2.39,2.85-3.51,5.96-3.03,9.68c0.09,0.71,0.58,2.15-0.48,2.2     c-1.54,0.07-0.79-1.51-0.71-2.19c0.46-3.73-0.66-6.84-3.05-9.7C309.71,482.57,308.47,480.44,307.07,478.39z"/>
			<path class="st4" d="M358.94,487.17c0-2.52,0.05-5.04-0.02-7.55c-0.03-1.11,0.22-1.55,1.45-1.51c2.9,0.09,5.8,0.01,8.7,0.05     c0.49,0.01,1.31-0.34,1.33,0.55c0.03,0.92-0.81,0.56-1.27,0.56c-2.58,0.04-5.17,0.06-7.75,0c-0.92-0.02-1.2,0.26-1.15,1.16     c0.09,1.94-0.61,4.42,0.34,5.66c0.9,1.17,3.53,0.24,5.4,0.34c0.82,0.04,1.64-0.01,2.46,0.02c0.39,0.01,0.98-0.21,1,0.49     c0.03,0.8-0.61,0.64-1.08,0.64c-2.08,0.01-4.17,0.13-6.24-0.04c-1.66-0.14-2,0.48-1.89,1.98c0.14,1.81,0.07,3.65,0.01,5.47     c-0.02,0.51,0.45,1.44-0.65,1.39c-1.02-0.05-0.6-0.95-0.6-1.47C358.92,492.33,358.94,489.75,358.94,487.17z"/>
			<path class="st4" d="M296.83,487.73c0-2.39-0.04-4.78,0.02-7.17c0.03-0.97-0.24-1.35-1.26-1.29c-1.38,0.08-2.77,0.03-4.16,0.01     c-0.4,0-0.95,0.16-0.91-0.58c0.02-0.54,0.39-0.56,0.78-0.56c4.16,0,8.32,0,12.47,0c0.4,0,0.76,0.08,0.75,0.6     c0,0.57-0.42,0.53-0.78,0.53c-1.26,0.01-2.53,0.09-3.78-0.02c-1.4-0.12-1.93,0.22-1.89,1.78c0.12,4.59,0.06,9.18,0.02,13.77     c-0.01,0.55,0.52,1.58-0.66,1.55c-1.01-0.02-0.58-0.95-0.59-1.48C296.8,492.51,296.83,490.12,296.83,487.73z"/>
			<path class="st4" d="M284.92,487.23c0-2.58-0.01-5.15,0.01-7.73c0.01-0.5-0.28-1.27,0.6-1.33c1.06-0.07,0.76,0.8,0.76,1.35     c0.02,5.22,0.02,10.43,0.01,15.65c0,0.52,0.21,1.24-0.7,1.23c-0.91-0.01-0.67-0.74-0.67-1.26     C284.91,492.51,284.92,489.87,284.92,487.23z"/>
			<path class="st4" d="M455.98,487.32c0,2.58,0.01,5.15-0.01,7.73c0,0.56,0.28,1.37-0.76,1.36c-0.96-0.01-0.66-0.75-0.66-1.24     c-0.02-5.28-0.02-10.56,0-15.83c0-0.51-0.22-1.23,0.73-1.18c0.9,0.04,0.69,0.74,0.7,1.25     C455.99,482.05,455.98,484.69,455.98,487.32z"/>
			<path class="st4" d="M206.06,487.22c0,2.65,0.01,5.29-0.01,7.94c0,0.49,0.31,1.26-0.65,1.24c-0.81-0.01-0.6-0.66-0.6-1.12     c-0.01-5.36-0.01-10.71,0-16.07c0-0.47-0.15-1.09,0.67-1.06c0.83,0.04,0.58,0.69,0.58,1.12     C206.07,481.93,206.06,484.58,206.06,487.22z"/>
			<path class="st4" d="M408.94,487.24c0-2.58-0.02-5.17,0.02-7.75c0.01-0.48-0.34-1.26,0.58-1.32c0.97-0.07,0.66,0.74,0.67,1.22     c0.02,5.29,0.02,10.59,0,15.88c0,0.44,0.25,1.11-0.57,1.14c-0.95,0.03-0.68-0.72-0.69-1.23     C408.93,492.53,408.94,489.89,408.94,487.24z"/>
			<path class="st4" d="M543.9,487.42c0-2.7-0.01-5.4,0.01-8.1c0-0.43-0.27-1.1,0.53-1.16c0.93-0.07,0.74,0.66,0.74,1.18     c0.01,5.34,0.01,10.67,0,16.01c0,0.48,0.12,1.07-0.67,1.07c-0.84,0-0.61-0.65-0.61-1.09C543.89,492.69,543.9,490.05,543.9,487.42     z"/>
			<path class="st4" d="M501.52,487.25c0,2.7,0.01,5.4-0.01,8.1c0,0.45,0.2,1.09-0.63,1.07c-0.79-0.02-0.65-0.61-0.65-1.09     c-0.01-5.34-0.01-10.67,0-16.01c0-0.53-0.16-1.24,0.76-1.15c0.8,0.08,0.51,0.74,0.51,1.17     C501.53,481.97,501.52,484.61,501.52,487.25z"/>
		</g>
	</g>
</g>
</svg>